%TF.GenerationSoftware,KiCad,Pcbnew,(5.1.10)-1*%
%TF.CreationDate,2021-09-02T17:40:54+03:00*%
%TF.ProjectId,Multivibrator,4d756c74-6976-4696-9272-61746f722e6b,rev?*%
%TF.SameCoordinates,Original*%
%TF.FileFunction,Soldermask,Top*%
%TF.FilePolarity,Negative*%
%FSLAX46Y46*%
G04 Gerber Fmt 4.6, Leading zero omitted, Abs format (unit mm)*
G04 Created by KiCad (PCBNEW (5.1.10)-1) date 2021-09-02 17:40:54*
%MOMM*%
%LPD*%
G01*
G04 APERTURE LIST*
%ADD10O,1.600000X1.600000*%
%ADD11C,1.600000*%
%ADD12R,0.650000X1.220000*%
%ADD13R,3.500000X3.500000*%
G04 APERTURE END LIST*
D10*
%TO.C,J3*%
X145224500Y-70104000D03*
D11*
X147764500Y-70104000D03*
%TD*%
%TO.C,C2*%
G36*
G01*
X150303000Y-64601000D02*
X150303000Y-65701000D01*
G75*
G02*
X150053000Y-65951000I-250000J0D01*
G01*
X147553000Y-65951000D01*
G75*
G02*
X147303000Y-65701000I0J250000D01*
G01*
X147303000Y-64601000D01*
G75*
G02*
X147553000Y-64351000I250000J0D01*
G01*
X150053000Y-64351000D01*
G75*
G02*
X150303000Y-64601000I0J-250000D01*
G01*
G37*
G36*
G01*
X154703000Y-64601000D02*
X154703000Y-65701000D01*
G75*
G02*
X154453000Y-65951000I-250000J0D01*
G01*
X151953000Y-65951000D01*
G75*
G02*
X151703000Y-65701000I0J250000D01*
G01*
X151703000Y-64601000D01*
G75*
G02*
X151953000Y-64351000I250000J0D01*
G01*
X154453000Y-64351000D01*
G75*
G02*
X154703000Y-64601000I0J-250000D01*
G01*
G37*
%TD*%
D12*
%TO.C,Q2*%
X152400000Y-73065000D03*
X151450000Y-70445000D03*
X153350000Y-70445000D03*
%TD*%
%TO.C,Q1*%
X141351000Y-70381500D03*
X142301000Y-73001500D03*
X140401000Y-73001500D03*
%TD*%
%TO.C,C1*%
G36*
G01*
X142305000Y-65701000D02*
X142305000Y-64601000D01*
G75*
G02*
X142555000Y-64351000I250000J0D01*
G01*
X145055000Y-64351000D01*
G75*
G02*
X145305000Y-64601000I0J-250000D01*
G01*
X145305000Y-65701000D01*
G75*
G02*
X145055000Y-65951000I-250000J0D01*
G01*
X142555000Y-65951000D01*
G75*
G02*
X142305000Y-65701000I0J250000D01*
G01*
G37*
G36*
G01*
X137905000Y-65701000D02*
X137905000Y-64601000D01*
G75*
G02*
X138155000Y-64351000I250000J0D01*
G01*
X140655000Y-64351000D01*
G75*
G02*
X140905000Y-64601000I0J-250000D01*
G01*
X140905000Y-65701000D01*
G75*
G02*
X140655000Y-65951000I-250000J0D01*
G01*
X138155000Y-65951000D01*
G75*
G02*
X137905000Y-65701000I0J250000D01*
G01*
G37*
%TD*%
%TO.C,J1*%
G36*
G01*
X166674500Y-65900500D02*
X164924500Y-65900500D01*
G75*
G02*
X164049500Y-65025500I0J875000D01*
G01*
X164049500Y-63275500D01*
G75*
G02*
X164924500Y-62400500I875000J0D01*
G01*
X166674500Y-62400500D01*
G75*
G02*
X167549500Y-63275500I0J-875000D01*
G01*
X167549500Y-65025500D01*
G75*
G02*
X166674500Y-65900500I-875000J0D01*
G01*
G37*
G36*
G01*
X162099500Y-68650500D02*
X160099500Y-68650500D01*
G75*
G02*
X159349500Y-67900500I0J750000D01*
G01*
X159349500Y-66400500D01*
G75*
G02*
X160099500Y-65650500I750000J0D01*
G01*
X162099500Y-65650500D01*
G75*
G02*
X162849500Y-66400500I0J-750000D01*
G01*
X162849500Y-67900500D01*
G75*
G02*
X162099500Y-68650500I-750000J0D01*
G01*
G37*
D13*
X161099500Y-61150500D03*
%TD*%
%TO.C,R4*%
G36*
G01*
X153219998Y-58820000D02*
X154120002Y-58820000D01*
G75*
G02*
X154370000Y-59069998I0J-249998D01*
G01*
X154370000Y-59595002D01*
G75*
G02*
X154120002Y-59845000I-249998J0D01*
G01*
X153219998Y-59845000D01*
G75*
G02*
X152970000Y-59595002I0J249998D01*
G01*
X152970000Y-59069998D01*
G75*
G02*
X153219998Y-58820000I249998J0D01*
G01*
G37*
G36*
G01*
X153219998Y-56995000D02*
X154120002Y-56995000D01*
G75*
G02*
X154370000Y-57244998I0J-249998D01*
G01*
X154370000Y-57770002D01*
G75*
G02*
X154120002Y-58020000I-249998J0D01*
G01*
X153219998Y-58020000D01*
G75*
G02*
X152970000Y-57770002I0J249998D01*
G01*
X152970000Y-57244998D01*
G75*
G02*
X153219998Y-56995000I249998J0D01*
G01*
G37*
%TD*%
%TO.C,R5*%
G36*
G01*
X148139998Y-58820000D02*
X149040002Y-58820000D01*
G75*
G02*
X149290000Y-59069998I0J-249998D01*
G01*
X149290000Y-59595002D01*
G75*
G02*
X149040002Y-59845000I-249998J0D01*
G01*
X148139998Y-59845000D01*
G75*
G02*
X147890000Y-59595002I0J249998D01*
G01*
X147890000Y-59069998D01*
G75*
G02*
X148139998Y-58820000I249998J0D01*
G01*
G37*
G36*
G01*
X148139998Y-56995000D02*
X149040002Y-56995000D01*
G75*
G02*
X149290000Y-57244998I0J-249998D01*
G01*
X149290000Y-57770002D01*
G75*
G02*
X149040002Y-58020000I-249998J0D01*
G01*
X148139998Y-58020000D01*
G75*
G02*
X147890000Y-57770002I0J249998D01*
G01*
X147890000Y-57244998D01*
G75*
G02*
X148139998Y-56995000I249998J0D01*
G01*
G37*
%TD*%
%TO.C,R2*%
G36*
G01*
X143059998Y-58820000D02*
X143960002Y-58820000D01*
G75*
G02*
X144210000Y-59069998I0J-249998D01*
G01*
X144210000Y-59595002D01*
G75*
G02*
X143960002Y-59845000I-249998J0D01*
G01*
X143059998Y-59845000D01*
G75*
G02*
X142810000Y-59595002I0J249998D01*
G01*
X142810000Y-59069998D01*
G75*
G02*
X143059998Y-58820000I249998J0D01*
G01*
G37*
G36*
G01*
X143059998Y-56995000D02*
X143960002Y-56995000D01*
G75*
G02*
X144210000Y-57244998I0J-249998D01*
G01*
X144210000Y-57770002D01*
G75*
G02*
X143960002Y-58020000I-249998J0D01*
G01*
X143059998Y-58020000D01*
G75*
G02*
X142810000Y-57770002I0J249998D01*
G01*
X142810000Y-57244998D01*
G75*
G02*
X143059998Y-56995000I249998J0D01*
G01*
G37*
%TD*%
%TO.C,R1*%
G36*
G01*
X138614998Y-58820000D02*
X139515002Y-58820000D01*
G75*
G02*
X139765000Y-59069998I0J-249998D01*
G01*
X139765000Y-59595002D01*
G75*
G02*
X139515002Y-59845000I-249998J0D01*
G01*
X138614998Y-59845000D01*
G75*
G02*
X138365000Y-59595002I0J249998D01*
G01*
X138365000Y-59069998D01*
G75*
G02*
X138614998Y-58820000I249998J0D01*
G01*
G37*
G36*
G01*
X138614998Y-56995000D02*
X139515002Y-56995000D01*
G75*
G02*
X139765000Y-57244998I0J-249998D01*
G01*
X139765000Y-57770002D01*
G75*
G02*
X139515002Y-58020000I-249998J0D01*
G01*
X138614998Y-58020000D01*
G75*
G02*
X138365000Y-57770002I0J249998D01*
G01*
X138365000Y-57244998D01*
G75*
G02*
X138614998Y-56995000I249998J0D01*
G01*
G37*
%TD*%
%TO.C,D2*%
G36*
G01*
X153770000Y-55663000D02*
X153570000Y-55663000D01*
G75*
G02*
X153470000Y-55563000I0J100000D01*
G01*
X153470000Y-55303000D01*
G75*
G02*
X153570000Y-55203000I100000J0D01*
G01*
X153770000Y-55203000D01*
G75*
G02*
X153870000Y-55303000I0J-100000D01*
G01*
X153870000Y-55563000D01*
G75*
G02*
X153770000Y-55663000I-100000J0D01*
G01*
G37*
G36*
G01*
X153770000Y-56303000D02*
X153570000Y-56303000D01*
G75*
G02*
X153470000Y-56203000I0J100000D01*
G01*
X153470000Y-55943000D01*
G75*
G02*
X153570000Y-55843000I100000J0D01*
G01*
X153770000Y-55843000D01*
G75*
G02*
X153870000Y-55943000I0J-100000D01*
G01*
X153870000Y-56203000D01*
G75*
G02*
X153770000Y-56303000I-100000J0D01*
G01*
G37*
%TD*%
%TO.C,D1*%
G36*
G01*
X139165000Y-55663000D02*
X138965000Y-55663000D01*
G75*
G02*
X138865000Y-55563000I0J100000D01*
G01*
X138865000Y-55303000D01*
G75*
G02*
X138965000Y-55203000I100000J0D01*
G01*
X139165000Y-55203000D01*
G75*
G02*
X139265000Y-55303000I0J-100000D01*
G01*
X139265000Y-55563000D01*
G75*
G02*
X139165000Y-55663000I-100000J0D01*
G01*
G37*
G36*
G01*
X139165000Y-56303000D02*
X138965000Y-56303000D01*
G75*
G02*
X138865000Y-56203000I0J100000D01*
G01*
X138865000Y-55943000D01*
G75*
G02*
X138965000Y-55843000I100000J0D01*
G01*
X139165000Y-55843000D01*
G75*
G02*
X139265000Y-55943000I0J-100000D01*
G01*
X139265000Y-56203000D01*
G75*
G02*
X139165000Y-56303000I-100000J0D01*
G01*
G37*
%TD*%
M02*
