%TF.GenerationSoftware,KiCad,Pcbnew,(5.1.10)-1*%
%TF.CreationDate,2021-08-31T23:06:00+03:00*%
%TF.ProjectId,Multivibrator,4d756c74-6976-4696-9272-61746f722e6b,rev?*%
%TF.SameCoordinates,Original*%
%TF.FileFunction,Legend,Top*%
%TF.FilePolarity,Positive*%
%FSLAX46Y46*%
G04 Gerber Fmt 4.6, Leading zero omitted, Abs format (unit mm)*
G04 Created by KiCad (PCBNEW (5.1.10)-1) date 2021-08-31 23:06:00*
%MOMM*%
%LPD*%
G01*
G04 APERTURE LIST*
%ADD10C,0.120000*%
%ADD11C,0.100000*%
%ADD12C,0.150000*%
G04 APERTURE END LIST*
D10*
X157480000Y-69850000D02*
X157480000Y-68580000D01*
X157480000Y-60325000D02*
X157480000Y-61595000D01*
X157480000Y-60960000D02*
X157480000Y-60325000D01*
X158115000Y-60960000D02*
X157480000Y-60960000D01*
X156845000Y-60960000D02*
X158115000Y-60960000D01*
%TO.C,R4*%
X152627000Y-58192936D02*
X152627000Y-58647064D01*
X151157000Y-58192936D02*
X151157000Y-58647064D01*
%TO.C,R3*%
X147716332Y-58192936D02*
X147716332Y-58647064D01*
X146246332Y-58192936D02*
X146246332Y-58647064D01*
%TO.C,R2*%
X142805666Y-58192936D02*
X142805666Y-58647064D01*
X141335666Y-58192936D02*
X141335666Y-58647064D01*
%TO.C,R1*%
X137895000Y-58192936D02*
X137895000Y-58647064D01*
X136425000Y-58192936D02*
X136425000Y-58647064D01*
%TO.C,Q2*%
X149037522Y-75498478D02*
G75*
G03*
X153476000Y-73660000I1838478J1838478D01*
G01*
X149037522Y-71821522D02*
G75*
G02*
X153476000Y-73660000I1838478J-1838478D01*
G01*
X149026000Y-71860000D02*
X149026000Y-75460000D01*
%TO.C,Q1*%
X135321522Y-75498478D02*
G75*
G03*
X139760000Y-73660000I1838478J1838478D01*
G01*
X135321522Y-71821522D02*
G75*
G02*
X139760000Y-73660000I1838478J-1838478D01*
G01*
X135310000Y-71860000D02*
X135310000Y-75460000D01*
%TO.C,J1*%
X160160000Y-62791000D02*
X156440000Y-62791000D01*
X156440000Y-62791000D02*
X156440000Y-67511000D01*
X156440000Y-67511000D02*
X160160000Y-67511000D01*
X160160000Y-67511000D02*
X160160000Y-62791000D01*
X159100000Y-62791000D02*
X159100000Y-62991000D01*
X159100000Y-62991000D02*
X159960000Y-62991000D01*
X159960000Y-62991000D02*
X159960000Y-67311000D01*
X159960000Y-67311000D02*
X159100000Y-67311000D01*
X159100000Y-67311000D02*
X159100000Y-67511000D01*
X159100000Y-62991000D02*
X158400000Y-62991000D01*
X158400000Y-62991000D02*
X158400000Y-62791000D01*
X159100000Y-67311000D02*
X158400000Y-67311000D01*
X158400000Y-67311000D02*
X158400000Y-67511000D01*
X158400000Y-62991000D02*
X156640000Y-62991000D01*
X156640000Y-62991000D02*
X156640000Y-67311000D01*
X156640000Y-67311000D02*
X158400000Y-67311000D01*
X160460000Y-63741000D02*
X160460000Y-62491000D01*
X160460000Y-62491000D02*
X159210000Y-62491000D01*
D11*
%TO.C,D2*%
X151942000Y-56613000D02*
G75*
G03*
X151942000Y-56613000I-50000J0D01*
G01*
%TO.C,D1*%
X137210000Y-56613000D02*
G75*
G03*
X137210000Y-56613000I-50000J0D01*
G01*
D10*
%TO.C,C2*%
X153623000Y-65151000D02*
G75*
G03*
X153623000Y-65151000I-3870000J0D01*
G01*
X149753000Y-68981000D02*
X149753000Y-61321000D01*
X149713000Y-68981000D02*
X149713000Y-61321000D01*
X149673000Y-68981000D02*
X149673000Y-61321000D01*
X149633000Y-68980000D02*
X149633000Y-61322000D01*
X149593000Y-68978000D02*
X149593000Y-61324000D01*
X149553000Y-68976000D02*
X149553000Y-61326000D01*
X149513000Y-68974000D02*
X149513000Y-66191000D01*
X149513000Y-64111000D02*
X149513000Y-61328000D01*
X149473000Y-68971000D02*
X149473000Y-66191000D01*
X149473000Y-64111000D02*
X149473000Y-61331000D01*
X149433000Y-68968000D02*
X149433000Y-66191000D01*
X149433000Y-64111000D02*
X149433000Y-61334000D01*
X149393000Y-68965000D02*
X149393000Y-66191000D01*
X149393000Y-64111000D02*
X149393000Y-61337000D01*
X149353000Y-68961000D02*
X149353000Y-66191000D01*
X149353000Y-64111000D02*
X149353000Y-61341000D01*
X149313000Y-68956000D02*
X149313000Y-66191000D01*
X149313000Y-64111000D02*
X149313000Y-61346000D01*
X149273000Y-68952000D02*
X149273000Y-66191000D01*
X149273000Y-64111000D02*
X149273000Y-61350000D01*
X149233000Y-68946000D02*
X149233000Y-66191000D01*
X149233000Y-64111000D02*
X149233000Y-61356000D01*
X149193000Y-68941000D02*
X149193000Y-66191000D01*
X149193000Y-64111000D02*
X149193000Y-61361000D01*
X149153000Y-68935000D02*
X149153000Y-66191000D01*
X149153000Y-64111000D02*
X149153000Y-61367000D01*
X149113000Y-68928000D02*
X149113000Y-66191000D01*
X149113000Y-64111000D02*
X149113000Y-61374000D01*
X149073000Y-68921000D02*
X149073000Y-66191000D01*
X149073000Y-64111000D02*
X149073000Y-61381000D01*
X149032000Y-68914000D02*
X149032000Y-66191000D01*
X149032000Y-64111000D02*
X149032000Y-61388000D01*
X148992000Y-68906000D02*
X148992000Y-66191000D01*
X148992000Y-64111000D02*
X148992000Y-61396000D01*
X148952000Y-68898000D02*
X148952000Y-66191000D01*
X148952000Y-64111000D02*
X148952000Y-61404000D01*
X148912000Y-68889000D02*
X148912000Y-66191000D01*
X148912000Y-64111000D02*
X148912000Y-61413000D01*
X148872000Y-68880000D02*
X148872000Y-66191000D01*
X148872000Y-64111000D02*
X148872000Y-61422000D01*
X148832000Y-68871000D02*
X148832000Y-66191000D01*
X148832000Y-64111000D02*
X148832000Y-61431000D01*
X148792000Y-68861000D02*
X148792000Y-66191000D01*
X148792000Y-64111000D02*
X148792000Y-61441000D01*
X148752000Y-68850000D02*
X148752000Y-66191000D01*
X148752000Y-64111000D02*
X148752000Y-61452000D01*
X148712000Y-68839000D02*
X148712000Y-66191000D01*
X148712000Y-64111000D02*
X148712000Y-61463000D01*
X148672000Y-68828000D02*
X148672000Y-66191000D01*
X148672000Y-64111000D02*
X148672000Y-61474000D01*
X148632000Y-68816000D02*
X148632000Y-66191000D01*
X148632000Y-64111000D02*
X148632000Y-61486000D01*
X148592000Y-68804000D02*
X148592000Y-66191000D01*
X148592000Y-64111000D02*
X148592000Y-61498000D01*
X148552000Y-68791000D02*
X148552000Y-66191000D01*
X148552000Y-64111000D02*
X148552000Y-61511000D01*
X148512000Y-68777000D02*
X148512000Y-66191000D01*
X148512000Y-64111000D02*
X148512000Y-61525000D01*
X148472000Y-68764000D02*
X148472000Y-66191000D01*
X148472000Y-64111000D02*
X148472000Y-61538000D01*
X148432000Y-68749000D02*
X148432000Y-66191000D01*
X148432000Y-64111000D02*
X148432000Y-61553000D01*
X148392000Y-68735000D02*
X148392000Y-66191000D01*
X148392000Y-64111000D02*
X148392000Y-61567000D01*
X148352000Y-68719000D02*
X148352000Y-66191000D01*
X148352000Y-64111000D02*
X148352000Y-61583000D01*
X148312000Y-68704000D02*
X148312000Y-66191000D01*
X148312000Y-64111000D02*
X148312000Y-61598000D01*
X148272000Y-68687000D02*
X148272000Y-66191000D01*
X148272000Y-64111000D02*
X148272000Y-61615000D01*
X148232000Y-68671000D02*
X148232000Y-66191000D01*
X148232000Y-64111000D02*
X148232000Y-61631000D01*
X148192000Y-68653000D02*
X148192000Y-66191000D01*
X148192000Y-64111000D02*
X148192000Y-61649000D01*
X148152000Y-68635000D02*
X148152000Y-66191000D01*
X148152000Y-64111000D02*
X148152000Y-61667000D01*
X148112000Y-68617000D02*
X148112000Y-66191000D01*
X148112000Y-64111000D02*
X148112000Y-61685000D01*
X148072000Y-68598000D02*
X148072000Y-66191000D01*
X148072000Y-64111000D02*
X148072000Y-61704000D01*
X148032000Y-68578000D02*
X148032000Y-66191000D01*
X148032000Y-64111000D02*
X148032000Y-61724000D01*
X147992000Y-68558000D02*
X147992000Y-66191000D01*
X147992000Y-64111000D02*
X147992000Y-61744000D01*
X147952000Y-68537000D02*
X147952000Y-66191000D01*
X147952000Y-64111000D02*
X147952000Y-61765000D01*
X147912000Y-68516000D02*
X147912000Y-66191000D01*
X147912000Y-64111000D02*
X147912000Y-61786000D01*
X147872000Y-68494000D02*
X147872000Y-66191000D01*
X147872000Y-64111000D02*
X147872000Y-61808000D01*
X147832000Y-68472000D02*
X147832000Y-66191000D01*
X147832000Y-64111000D02*
X147832000Y-61830000D01*
X147792000Y-68448000D02*
X147792000Y-66191000D01*
X147792000Y-64111000D02*
X147792000Y-61854000D01*
X147752000Y-68425000D02*
X147752000Y-66191000D01*
X147752000Y-64111000D02*
X147752000Y-61877000D01*
X147712000Y-68400000D02*
X147712000Y-66191000D01*
X147712000Y-64111000D02*
X147712000Y-61902000D01*
X147672000Y-68375000D02*
X147672000Y-66191000D01*
X147672000Y-64111000D02*
X147672000Y-61927000D01*
X147632000Y-68349000D02*
X147632000Y-66191000D01*
X147632000Y-64111000D02*
X147632000Y-61953000D01*
X147592000Y-68323000D02*
X147592000Y-66191000D01*
X147592000Y-64111000D02*
X147592000Y-61979000D01*
X147552000Y-68295000D02*
X147552000Y-66191000D01*
X147552000Y-64111000D02*
X147552000Y-62007000D01*
X147512000Y-68267000D02*
X147512000Y-66191000D01*
X147512000Y-64111000D02*
X147512000Y-62035000D01*
X147472000Y-68239000D02*
X147472000Y-66191000D01*
X147472000Y-64111000D02*
X147472000Y-62063000D01*
X147432000Y-68209000D02*
X147432000Y-62093000D01*
X147392000Y-68179000D02*
X147392000Y-62123000D01*
X147352000Y-68147000D02*
X147352000Y-62155000D01*
X147312000Y-68115000D02*
X147312000Y-62187000D01*
X147272000Y-68082000D02*
X147272000Y-62220000D01*
X147232000Y-68049000D02*
X147232000Y-62253000D01*
X147192000Y-68014000D02*
X147192000Y-62288000D01*
X147152000Y-67978000D02*
X147152000Y-62324000D01*
X147112000Y-67941000D02*
X147112000Y-62361000D01*
X147072000Y-67903000D02*
X147072000Y-62399000D01*
X147032000Y-67864000D02*
X147032000Y-62438000D01*
X146992000Y-67824000D02*
X146992000Y-62478000D01*
X146952000Y-67783000D02*
X146952000Y-62519000D01*
X146912000Y-67740000D02*
X146912000Y-62562000D01*
X146872000Y-67697000D02*
X146872000Y-62605000D01*
X146832000Y-67651000D02*
X146832000Y-62651000D01*
X146792000Y-67605000D02*
X146792000Y-62697000D01*
X146752000Y-67556000D02*
X146752000Y-62746000D01*
X146712000Y-67506000D02*
X146712000Y-62796000D01*
X146672000Y-67455000D02*
X146672000Y-62847000D01*
X146632000Y-67401000D02*
X146632000Y-62901000D01*
X146592000Y-67346000D02*
X146592000Y-62956000D01*
X146552000Y-67288000D02*
X146552000Y-63014000D01*
X146512000Y-67228000D02*
X146512000Y-63074000D01*
X146472000Y-67165000D02*
X146472000Y-63137000D01*
X146432000Y-67100000D02*
X146432000Y-63202000D01*
X146392000Y-67032000D02*
X146392000Y-63270000D01*
X146352000Y-66960000D02*
X146352000Y-63342000D01*
X146312000Y-66884000D02*
X146312000Y-63418000D01*
X146272000Y-66805000D02*
X146272000Y-63497000D01*
X146232000Y-66720000D02*
X146232000Y-63582000D01*
X146192000Y-66629000D02*
X146192000Y-63673000D01*
X146152000Y-66532000D02*
X146152000Y-63770000D01*
X146112000Y-66426000D02*
X146112000Y-63876000D01*
X146072000Y-66309000D02*
X146072000Y-63993000D01*
X146032000Y-66179000D02*
X146032000Y-64123000D01*
X145992000Y-66028000D02*
X145992000Y-64274000D01*
X145952000Y-65844000D02*
X145952000Y-64458000D01*
X145912000Y-65592000D02*
X145912000Y-64710000D01*
X153895211Y-67326000D02*
X153145211Y-67326000D01*
X153520211Y-67701000D02*
X153520211Y-66951000D01*
%TO.C,C1*%
X142407000Y-65151000D02*
G75*
G03*
X142407000Y-65151000I-3870000J0D01*
G01*
X138537000Y-61321000D02*
X138537000Y-68981000D01*
X138577000Y-61321000D02*
X138577000Y-68981000D01*
X138617000Y-61321000D02*
X138617000Y-68981000D01*
X138657000Y-61322000D02*
X138657000Y-68980000D01*
X138697000Y-61324000D02*
X138697000Y-68978000D01*
X138737000Y-61326000D02*
X138737000Y-68976000D01*
X138777000Y-61328000D02*
X138777000Y-64111000D01*
X138777000Y-66191000D02*
X138777000Y-68974000D01*
X138817000Y-61331000D02*
X138817000Y-64111000D01*
X138817000Y-66191000D02*
X138817000Y-68971000D01*
X138857000Y-61334000D02*
X138857000Y-64111000D01*
X138857000Y-66191000D02*
X138857000Y-68968000D01*
X138897000Y-61337000D02*
X138897000Y-64111000D01*
X138897000Y-66191000D02*
X138897000Y-68965000D01*
X138937000Y-61341000D02*
X138937000Y-64111000D01*
X138937000Y-66191000D02*
X138937000Y-68961000D01*
X138977000Y-61346000D02*
X138977000Y-64111000D01*
X138977000Y-66191000D02*
X138977000Y-68956000D01*
X139017000Y-61350000D02*
X139017000Y-64111000D01*
X139017000Y-66191000D02*
X139017000Y-68952000D01*
X139057000Y-61356000D02*
X139057000Y-64111000D01*
X139057000Y-66191000D02*
X139057000Y-68946000D01*
X139097000Y-61361000D02*
X139097000Y-64111000D01*
X139097000Y-66191000D02*
X139097000Y-68941000D01*
X139137000Y-61367000D02*
X139137000Y-64111000D01*
X139137000Y-66191000D02*
X139137000Y-68935000D01*
X139177000Y-61374000D02*
X139177000Y-64111000D01*
X139177000Y-66191000D02*
X139177000Y-68928000D01*
X139217000Y-61381000D02*
X139217000Y-64111000D01*
X139217000Y-66191000D02*
X139217000Y-68921000D01*
X139258000Y-61388000D02*
X139258000Y-64111000D01*
X139258000Y-66191000D02*
X139258000Y-68914000D01*
X139298000Y-61396000D02*
X139298000Y-64111000D01*
X139298000Y-66191000D02*
X139298000Y-68906000D01*
X139338000Y-61404000D02*
X139338000Y-64111000D01*
X139338000Y-66191000D02*
X139338000Y-68898000D01*
X139378000Y-61413000D02*
X139378000Y-64111000D01*
X139378000Y-66191000D02*
X139378000Y-68889000D01*
X139418000Y-61422000D02*
X139418000Y-64111000D01*
X139418000Y-66191000D02*
X139418000Y-68880000D01*
X139458000Y-61431000D02*
X139458000Y-64111000D01*
X139458000Y-66191000D02*
X139458000Y-68871000D01*
X139498000Y-61441000D02*
X139498000Y-64111000D01*
X139498000Y-66191000D02*
X139498000Y-68861000D01*
X139538000Y-61452000D02*
X139538000Y-64111000D01*
X139538000Y-66191000D02*
X139538000Y-68850000D01*
X139578000Y-61463000D02*
X139578000Y-64111000D01*
X139578000Y-66191000D02*
X139578000Y-68839000D01*
X139618000Y-61474000D02*
X139618000Y-64111000D01*
X139618000Y-66191000D02*
X139618000Y-68828000D01*
X139658000Y-61486000D02*
X139658000Y-64111000D01*
X139658000Y-66191000D02*
X139658000Y-68816000D01*
X139698000Y-61498000D02*
X139698000Y-64111000D01*
X139698000Y-66191000D02*
X139698000Y-68804000D01*
X139738000Y-61511000D02*
X139738000Y-64111000D01*
X139738000Y-66191000D02*
X139738000Y-68791000D01*
X139778000Y-61525000D02*
X139778000Y-64111000D01*
X139778000Y-66191000D02*
X139778000Y-68777000D01*
X139818000Y-61538000D02*
X139818000Y-64111000D01*
X139818000Y-66191000D02*
X139818000Y-68764000D01*
X139858000Y-61553000D02*
X139858000Y-64111000D01*
X139858000Y-66191000D02*
X139858000Y-68749000D01*
X139898000Y-61567000D02*
X139898000Y-64111000D01*
X139898000Y-66191000D02*
X139898000Y-68735000D01*
X139938000Y-61583000D02*
X139938000Y-64111000D01*
X139938000Y-66191000D02*
X139938000Y-68719000D01*
X139978000Y-61598000D02*
X139978000Y-64111000D01*
X139978000Y-66191000D02*
X139978000Y-68704000D01*
X140018000Y-61615000D02*
X140018000Y-64111000D01*
X140018000Y-66191000D02*
X140018000Y-68687000D01*
X140058000Y-61631000D02*
X140058000Y-64111000D01*
X140058000Y-66191000D02*
X140058000Y-68671000D01*
X140098000Y-61649000D02*
X140098000Y-64111000D01*
X140098000Y-66191000D02*
X140098000Y-68653000D01*
X140138000Y-61667000D02*
X140138000Y-64111000D01*
X140138000Y-66191000D02*
X140138000Y-68635000D01*
X140178000Y-61685000D02*
X140178000Y-64111000D01*
X140178000Y-66191000D02*
X140178000Y-68617000D01*
X140218000Y-61704000D02*
X140218000Y-64111000D01*
X140218000Y-66191000D02*
X140218000Y-68598000D01*
X140258000Y-61724000D02*
X140258000Y-64111000D01*
X140258000Y-66191000D02*
X140258000Y-68578000D01*
X140298000Y-61744000D02*
X140298000Y-64111000D01*
X140298000Y-66191000D02*
X140298000Y-68558000D01*
X140338000Y-61765000D02*
X140338000Y-64111000D01*
X140338000Y-66191000D02*
X140338000Y-68537000D01*
X140378000Y-61786000D02*
X140378000Y-64111000D01*
X140378000Y-66191000D02*
X140378000Y-68516000D01*
X140418000Y-61808000D02*
X140418000Y-64111000D01*
X140418000Y-66191000D02*
X140418000Y-68494000D01*
X140458000Y-61830000D02*
X140458000Y-64111000D01*
X140458000Y-66191000D02*
X140458000Y-68472000D01*
X140498000Y-61854000D02*
X140498000Y-64111000D01*
X140498000Y-66191000D02*
X140498000Y-68448000D01*
X140538000Y-61877000D02*
X140538000Y-64111000D01*
X140538000Y-66191000D02*
X140538000Y-68425000D01*
X140578000Y-61902000D02*
X140578000Y-64111000D01*
X140578000Y-66191000D02*
X140578000Y-68400000D01*
X140618000Y-61927000D02*
X140618000Y-64111000D01*
X140618000Y-66191000D02*
X140618000Y-68375000D01*
X140658000Y-61953000D02*
X140658000Y-64111000D01*
X140658000Y-66191000D02*
X140658000Y-68349000D01*
X140698000Y-61979000D02*
X140698000Y-64111000D01*
X140698000Y-66191000D02*
X140698000Y-68323000D01*
X140738000Y-62007000D02*
X140738000Y-64111000D01*
X140738000Y-66191000D02*
X140738000Y-68295000D01*
X140778000Y-62035000D02*
X140778000Y-64111000D01*
X140778000Y-66191000D02*
X140778000Y-68267000D01*
X140818000Y-62063000D02*
X140818000Y-64111000D01*
X140818000Y-66191000D02*
X140818000Y-68239000D01*
X140858000Y-62093000D02*
X140858000Y-68209000D01*
X140898000Y-62123000D02*
X140898000Y-68179000D01*
X140938000Y-62155000D02*
X140938000Y-68147000D01*
X140978000Y-62187000D02*
X140978000Y-68115000D01*
X141018000Y-62220000D02*
X141018000Y-68082000D01*
X141058000Y-62253000D02*
X141058000Y-68049000D01*
X141098000Y-62288000D02*
X141098000Y-68014000D01*
X141138000Y-62324000D02*
X141138000Y-67978000D01*
X141178000Y-62361000D02*
X141178000Y-67941000D01*
X141218000Y-62399000D02*
X141218000Y-67903000D01*
X141258000Y-62438000D02*
X141258000Y-67864000D01*
X141298000Y-62478000D02*
X141298000Y-67824000D01*
X141338000Y-62519000D02*
X141338000Y-67783000D01*
X141378000Y-62562000D02*
X141378000Y-67740000D01*
X141418000Y-62605000D02*
X141418000Y-67697000D01*
X141458000Y-62651000D02*
X141458000Y-67651000D01*
X141498000Y-62697000D02*
X141498000Y-67605000D01*
X141538000Y-62746000D02*
X141538000Y-67556000D01*
X141578000Y-62796000D02*
X141578000Y-67506000D01*
X141618000Y-62847000D02*
X141618000Y-67455000D01*
X141658000Y-62901000D02*
X141658000Y-67401000D01*
X141698000Y-62956000D02*
X141698000Y-67346000D01*
X141738000Y-63014000D02*
X141738000Y-67288000D01*
X141778000Y-63074000D02*
X141778000Y-67228000D01*
X141818000Y-63137000D02*
X141818000Y-67165000D01*
X141858000Y-63202000D02*
X141858000Y-67100000D01*
X141898000Y-63270000D02*
X141898000Y-67032000D01*
X141938000Y-63342000D02*
X141938000Y-66960000D01*
X141978000Y-63418000D02*
X141978000Y-66884000D01*
X142018000Y-63497000D02*
X142018000Y-66805000D01*
X142058000Y-63582000D02*
X142058000Y-66720000D01*
X142098000Y-63673000D02*
X142098000Y-66629000D01*
X142138000Y-63770000D02*
X142138000Y-66532000D01*
X142178000Y-63876000D02*
X142178000Y-66426000D01*
X142218000Y-63993000D02*
X142218000Y-66309000D01*
X142258000Y-64123000D02*
X142258000Y-66179000D01*
X142298000Y-64274000D02*
X142298000Y-66028000D01*
X142338000Y-64458000D02*
X142338000Y-65844000D01*
X142378000Y-64710000D02*
X142378000Y-65592000D01*
X134394789Y-62976000D02*
X135144789Y-62976000D01*
X134769789Y-62601000D02*
X134769789Y-63351000D01*
%TO.C,R4*%
D12*
X153994380Y-58586666D02*
X153518190Y-58920000D01*
X153994380Y-59158095D02*
X152994380Y-59158095D01*
X152994380Y-58777142D01*
X153042000Y-58681904D01*
X153089619Y-58634285D01*
X153184857Y-58586666D01*
X153327714Y-58586666D01*
X153422952Y-58634285D01*
X153470571Y-58681904D01*
X153518190Y-58777142D01*
X153518190Y-59158095D01*
X153327714Y-57729523D02*
X153994380Y-57729523D01*
X152946761Y-57967619D02*
X153661047Y-58205714D01*
X153661047Y-57586666D01*
%TO.C,R3*%
X149083712Y-58586666D02*
X148607522Y-58920000D01*
X149083712Y-59158095D02*
X148083712Y-59158095D01*
X148083712Y-58777142D01*
X148131332Y-58681904D01*
X148178951Y-58634285D01*
X148274189Y-58586666D01*
X148417046Y-58586666D01*
X148512284Y-58634285D01*
X148559903Y-58681904D01*
X148607522Y-58777142D01*
X148607522Y-59158095D01*
X148083712Y-58253333D02*
X148083712Y-57634285D01*
X148464665Y-57967619D01*
X148464665Y-57824761D01*
X148512284Y-57729523D01*
X148559903Y-57681904D01*
X148655141Y-57634285D01*
X148893236Y-57634285D01*
X148988474Y-57681904D01*
X149036093Y-57729523D01*
X149083712Y-57824761D01*
X149083712Y-58110476D01*
X149036093Y-58205714D01*
X148988474Y-58253333D01*
%TO.C,R2*%
X144173046Y-58586666D02*
X143696856Y-58920000D01*
X144173046Y-59158095D02*
X143173046Y-59158095D01*
X143173046Y-58777142D01*
X143220666Y-58681904D01*
X143268285Y-58634285D01*
X143363523Y-58586666D01*
X143506380Y-58586666D01*
X143601618Y-58634285D01*
X143649237Y-58681904D01*
X143696856Y-58777142D01*
X143696856Y-59158095D01*
X143268285Y-58205714D02*
X143220666Y-58158095D01*
X143173046Y-58062857D01*
X143173046Y-57824761D01*
X143220666Y-57729523D01*
X143268285Y-57681904D01*
X143363523Y-57634285D01*
X143458761Y-57634285D01*
X143601618Y-57681904D01*
X144173046Y-58253333D01*
X144173046Y-57634285D01*
%TO.C,R1*%
X139262380Y-58586666D02*
X138786190Y-58920000D01*
X139262380Y-59158095D02*
X138262380Y-59158095D01*
X138262380Y-58777142D01*
X138310000Y-58681904D01*
X138357619Y-58634285D01*
X138452857Y-58586666D01*
X138595714Y-58586666D01*
X138690952Y-58634285D01*
X138738571Y-58681904D01*
X138786190Y-58777142D01*
X138786190Y-59158095D01*
X139262380Y-57634285D02*
X139262380Y-58205714D01*
X139262380Y-57920000D02*
X138262380Y-57920000D01*
X138405238Y-58015238D01*
X138500476Y-58110476D01*
X138548095Y-58205714D01*
%TO.C,Q2*%
X154983619Y-73755238D02*
X154936000Y-73850476D01*
X154840761Y-73945714D01*
X154697904Y-74088571D01*
X154650285Y-74183809D01*
X154650285Y-74279047D01*
X154888380Y-74231428D02*
X154840761Y-74326666D01*
X154745523Y-74421904D01*
X154555047Y-74469523D01*
X154221714Y-74469523D01*
X154031238Y-74421904D01*
X153936000Y-74326666D01*
X153888380Y-74231428D01*
X153888380Y-74040952D01*
X153936000Y-73945714D01*
X154031238Y-73850476D01*
X154221714Y-73802857D01*
X154555047Y-73802857D01*
X154745523Y-73850476D01*
X154840761Y-73945714D01*
X154888380Y-74040952D01*
X154888380Y-74231428D01*
X153983619Y-73421904D02*
X153936000Y-73374285D01*
X153888380Y-73279047D01*
X153888380Y-73040952D01*
X153936000Y-72945714D01*
X153983619Y-72898095D01*
X154078857Y-72850476D01*
X154174095Y-72850476D01*
X154316952Y-72898095D01*
X154888380Y-73469523D01*
X154888380Y-72850476D01*
%TO.C,Q1*%
X141267619Y-73755238D02*
X141220000Y-73850476D01*
X141124761Y-73945714D01*
X140981904Y-74088571D01*
X140934285Y-74183809D01*
X140934285Y-74279047D01*
X141172380Y-74231428D02*
X141124761Y-74326666D01*
X141029523Y-74421904D01*
X140839047Y-74469523D01*
X140505714Y-74469523D01*
X140315238Y-74421904D01*
X140220000Y-74326666D01*
X140172380Y-74231428D01*
X140172380Y-74040952D01*
X140220000Y-73945714D01*
X140315238Y-73850476D01*
X140505714Y-73802857D01*
X140839047Y-73802857D01*
X141029523Y-73850476D01*
X141124761Y-73945714D01*
X141172380Y-74040952D01*
X141172380Y-74231428D01*
X141172380Y-72850476D02*
X141172380Y-73421904D01*
X141172380Y-73136190D02*
X140172380Y-73136190D01*
X140315238Y-73231428D01*
X140410476Y-73326666D01*
X140458095Y-73421904D01*
%TO.C,J1*%
X160702380Y-65484333D02*
X161416666Y-65484333D01*
X161559523Y-65531952D01*
X161654761Y-65627190D01*
X161702380Y-65770047D01*
X161702380Y-65865285D01*
X161702380Y-64484333D02*
X161702380Y-65055761D01*
X161702380Y-64770047D02*
X160702380Y-64770047D01*
X160845238Y-64865285D01*
X160940476Y-64960523D01*
X160988095Y-65055761D01*
%TO.C,D2*%
X151294380Y-56491095D02*
X150294380Y-56491095D01*
X150294380Y-56253000D01*
X150342000Y-56110142D01*
X150437238Y-56014904D01*
X150532476Y-55967285D01*
X150722952Y-55919666D01*
X150865809Y-55919666D01*
X151056285Y-55967285D01*
X151151523Y-56014904D01*
X151246761Y-56110142D01*
X151294380Y-56253000D01*
X151294380Y-56491095D01*
X150389619Y-55538714D02*
X150342000Y-55491095D01*
X150294380Y-55395857D01*
X150294380Y-55157761D01*
X150342000Y-55062523D01*
X150389619Y-55014904D01*
X150484857Y-54967285D01*
X150580095Y-54967285D01*
X150722952Y-55014904D01*
X151294380Y-55586333D01*
X151294380Y-54967285D01*
%TO.C,D1*%
X136562380Y-56491095D02*
X135562380Y-56491095D01*
X135562380Y-56253000D01*
X135610000Y-56110142D01*
X135705238Y-56014904D01*
X135800476Y-55967285D01*
X135990952Y-55919666D01*
X136133809Y-55919666D01*
X136324285Y-55967285D01*
X136419523Y-56014904D01*
X136514761Y-56110142D01*
X136562380Y-56253000D01*
X136562380Y-56491095D01*
X136562380Y-54967285D02*
X136562380Y-55538714D01*
X136562380Y-55253000D02*
X135562380Y-55253000D01*
X135705238Y-55348238D01*
X135800476Y-55443476D01*
X135848095Y-55538714D01*
%TO.C,C2*%
X149586333Y-70508142D02*
X149538714Y-70555761D01*
X149395857Y-70603380D01*
X149300619Y-70603380D01*
X149157761Y-70555761D01*
X149062523Y-70460523D01*
X149014904Y-70365285D01*
X148967285Y-70174809D01*
X148967285Y-70031952D01*
X149014904Y-69841476D01*
X149062523Y-69746238D01*
X149157761Y-69651000D01*
X149300619Y-69603380D01*
X149395857Y-69603380D01*
X149538714Y-69651000D01*
X149586333Y-69698619D01*
X149967285Y-69698619D02*
X150014904Y-69651000D01*
X150110142Y-69603380D01*
X150348238Y-69603380D01*
X150443476Y-69651000D01*
X150491095Y-69698619D01*
X150538714Y-69793857D01*
X150538714Y-69889095D01*
X150491095Y-70031952D01*
X149919666Y-70603380D01*
X150538714Y-70603380D01*
%TO.C,C1*%
X135977333Y-70334142D02*
X135929714Y-70381761D01*
X135786857Y-70429380D01*
X135691619Y-70429380D01*
X135548761Y-70381761D01*
X135453523Y-70286523D01*
X135405904Y-70191285D01*
X135358285Y-70000809D01*
X135358285Y-69857952D01*
X135405904Y-69667476D01*
X135453523Y-69572238D01*
X135548761Y-69477000D01*
X135691619Y-69429380D01*
X135786857Y-69429380D01*
X135929714Y-69477000D01*
X135977333Y-69524619D01*
X136929714Y-70429380D02*
X136358285Y-70429380D01*
X136644000Y-70429380D02*
X136644000Y-69429380D01*
X136548761Y-69572238D01*
X136453523Y-69667476D01*
X136358285Y-69715095D01*
%TD*%
M02*
