%TF.GenerationSoftware,KiCad,Pcbnew,(5.1.10)-1*%
%TF.CreationDate,2021-09-02T17:40:54+03:00*%
%TF.ProjectId,Multivibrator,4d756c74-6976-4696-9272-61746f722e6b,rev?*%
%TF.SameCoordinates,Original*%
%TF.FileFunction,Copper,L1,Top*%
%TF.FilePolarity,Positive*%
%FSLAX46Y46*%
G04 Gerber Fmt 4.6, Leading zero omitted, Abs format (unit mm)*
G04 Created by KiCad (PCBNEW (5.1.10)-1) date 2021-09-02 17:40:54*
%MOMM*%
%LPD*%
G01*
G04 APERTURE LIST*
%TA.AperFunction,ComponentPad*%
%ADD10O,1.600000X1.600000*%
%TD*%
%TA.AperFunction,ComponentPad*%
%ADD11C,1.600000*%
%TD*%
%TA.AperFunction,SMDPad,CuDef*%
%ADD12R,0.650000X1.220000*%
%TD*%
%TA.AperFunction,ComponentPad*%
%ADD13R,3.500000X3.500000*%
%TD*%
%TA.AperFunction,Conductor*%
%ADD14C,0.250000*%
%TD*%
%TA.AperFunction,Conductor*%
%ADD15C,0.254000*%
%TD*%
%TA.AperFunction,Conductor*%
%ADD16C,0.100000*%
%TD*%
%TA.AperFunction,NonConductor*%
%ADD17C,0.254000*%
%TD*%
%TA.AperFunction,NonConductor*%
%ADD18C,0.100000*%
%TD*%
G04 APERTURE END LIST*
D10*
%TO.P,J3,2*%
%TO.N,Net-(C1-Pad2)*%
X145224500Y-70104000D03*
D11*
%TO.P,J3,1*%
%TO.N,Net-(J3-Pad1)*%
X147764500Y-70104000D03*
%TD*%
%TO.P,C2,2*%
%TO.N,Net-(C2-Pad2)*%
%TA.AperFunction,SMDPad,CuDef*%
G36*
G01*
X150303000Y-64601000D02*
X150303000Y-65701000D01*
G75*
G02*
X150053000Y-65951000I-250000J0D01*
G01*
X147553000Y-65951000D01*
G75*
G02*
X147303000Y-65701000I0J250000D01*
G01*
X147303000Y-64601000D01*
G75*
G02*
X147553000Y-64351000I250000J0D01*
G01*
X150053000Y-64351000D01*
G75*
G02*
X150303000Y-64601000I0J-250000D01*
G01*
G37*
%TD.AperFunction*%
%TO.P,C2,1*%
%TO.N,Net-(C2-Pad1)*%
%TA.AperFunction,SMDPad,CuDef*%
G36*
G01*
X154703000Y-64601000D02*
X154703000Y-65701000D01*
G75*
G02*
X154453000Y-65951000I-250000J0D01*
G01*
X151953000Y-65951000D01*
G75*
G02*
X151703000Y-65701000I0J250000D01*
G01*
X151703000Y-64601000D01*
G75*
G02*
X151953000Y-64351000I250000J0D01*
G01*
X154453000Y-64351000D01*
G75*
G02*
X154703000Y-64601000I0J-250000D01*
G01*
G37*
%TD.AperFunction*%
%TD*%
D12*
%TO.P,Q2,3*%
%TO.N,GND*%
X152400000Y-73065000D03*
%TO.P,Q2,2*%
%TO.N,Net-(J3-Pad1)*%
X151450000Y-70445000D03*
%TO.P,Q2,1*%
%TO.N,Net-(C2-Pad1)*%
X153350000Y-70445000D03*
%TD*%
%TO.P,Q1,3*%
%TO.N,GND*%
X141351000Y-70381500D03*
%TO.P,Q1,2*%
%TO.N,Net-(C2-Pad2)*%
X142301000Y-73001500D03*
%TO.P,Q1,1*%
%TO.N,Net-(C1-Pad1)*%
X140401000Y-73001500D03*
%TD*%
%TO.P,C1,2*%
%TO.N,Net-(C1-Pad2)*%
%TA.AperFunction,SMDPad,CuDef*%
G36*
G01*
X142305000Y-65701000D02*
X142305000Y-64601000D01*
G75*
G02*
X142555000Y-64351000I250000J0D01*
G01*
X145055000Y-64351000D01*
G75*
G02*
X145305000Y-64601000I0J-250000D01*
G01*
X145305000Y-65701000D01*
G75*
G02*
X145055000Y-65951000I-250000J0D01*
G01*
X142555000Y-65951000D01*
G75*
G02*
X142305000Y-65701000I0J250000D01*
G01*
G37*
%TD.AperFunction*%
%TO.P,C1,1*%
%TO.N,Net-(C1-Pad1)*%
%TA.AperFunction,SMDPad,CuDef*%
G36*
G01*
X137905000Y-65701000D02*
X137905000Y-64601000D01*
G75*
G02*
X138155000Y-64351000I250000J0D01*
G01*
X140655000Y-64351000D01*
G75*
G02*
X140905000Y-64601000I0J-250000D01*
G01*
X140905000Y-65701000D01*
G75*
G02*
X140655000Y-65951000I-250000J0D01*
G01*
X138155000Y-65951000D01*
G75*
G02*
X137905000Y-65701000I0J250000D01*
G01*
G37*
%TD.AperFunction*%
%TD*%
%TO.P,J1,3*%
%TO.N,N/C*%
%TA.AperFunction,ComponentPad*%
G36*
G01*
X166674500Y-65900500D02*
X164924500Y-65900500D01*
G75*
G02*
X164049500Y-65025500I0J875000D01*
G01*
X164049500Y-63275500D01*
G75*
G02*
X164924500Y-62400500I875000J0D01*
G01*
X166674500Y-62400500D01*
G75*
G02*
X167549500Y-63275500I0J-875000D01*
G01*
X167549500Y-65025500D01*
G75*
G02*
X166674500Y-65900500I-875000J0D01*
G01*
G37*
%TD.AperFunction*%
%TO.P,J1,2*%
%TO.N,GND*%
%TA.AperFunction,ComponentPad*%
G36*
G01*
X162099500Y-68650500D02*
X160099500Y-68650500D01*
G75*
G02*
X159349500Y-67900500I0J750000D01*
G01*
X159349500Y-66400500D01*
G75*
G02*
X160099500Y-65650500I750000J0D01*
G01*
X162099500Y-65650500D01*
G75*
G02*
X162849500Y-66400500I0J-750000D01*
G01*
X162849500Y-67900500D01*
G75*
G02*
X162099500Y-68650500I-750000J0D01*
G01*
G37*
%TD.AperFunction*%
D13*
%TO.P,J1,1*%
%TO.N,+5V*%
X161099500Y-61150500D03*
%TD*%
%TO.P,R4,2*%
%TO.N,Net-(C2-Pad1)*%
%TA.AperFunction,SMDPad,CuDef*%
G36*
G01*
X153219998Y-58820000D02*
X154120002Y-58820000D01*
G75*
G02*
X154370000Y-59069998I0J-249998D01*
G01*
X154370000Y-59595002D01*
G75*
G02*
X154120002Y-59845000I-249998J0D01*
G01*
X153219998Y-59845000D01*
G75*
G02*
X152970000Y-59595002I0J249998D01*
G01*
X152970000Y-59069998D01*
G75*
G02*
X153219998Y-58820000I249998J0D01*
G01*
G37*
%TD.AperFunction*%
%TO.P,R4,1*%
%TO.N,Net-(D2-Pad1)*%
%TA.AperFunction,SMDPad,CuDef*%
G36*
G01*
X153219998Y-56995000D02*
X154120002Y-56995000D01*
G75*
G02*
X154370000Y-57244998I0J-249998D01*
G01*
X154370000Y-57770002D01*
G75*
G02*
X154120002Y-58020000I-249998J0D01*
G01*
X153219998Y-58020000D01*
G75*
G02*
X152970000Y-57770002I0J249998D01*
G01*
X152970000Y-57244998D01*
G75*
G02*
X153219998Y-56995000I249998J0D01*
G01*
G37*
%TD.AperFunction*%
%TD*%
%TO.P,R5,2*%
%TO.N,Net-(C2-Pad2)*%
%TA.AperFunction,SMDPad,CuDef*%
G36*
G01*
X148139998Y-58820000D02*
X149040002Y-58820000D01*
G75*
G02*
X149290000Y-59069998I0J-249998D01*
G01*
X149290000Y-59595002D01*
G75*
G02*
X149040002Y-59845000I-249998J0D01*
G01*
X148139998Y-59845000D01*
G75*
G02*
X147890000Y-59595002I0J249998D01*
G01*
X147890000Y-59069998D01*
G75*
G02*
X148139998Y-58820000I249998J0D01*
G01*
G37*
%TD.AperFunction*%
%TO.P,R5,1*%
%TO.N,+5V*%
%TA.AperFunction,SMDPad,CuDef*%
G36*
G01*
X148139998Y-56995000D02*
X149040002Y-56995000D01*
G75*
G02*
X149290000Y-57244998I0J-249998D01*
G01*
X149290000Y-57770002D01*
G75*
G02*
X149040002Y-58020000I-249998J0D01*
G01*
X148139998Y-58020000D01*
G75*
G02*
X147890000Y-57770002I0J249998D01*
G01*
X147890000Y-57244998D01*
G75*
G02*
X148139998Y-56995000I249998J0D01*
G01*
G37*
%TD.AperFunction*%
%TD*%
%TO.P,R2,2*%
%TO.N,Net-(C1-Pad2)*%
%TA.AperFunction,SMDPad,CuDef*%
G36*
G01*
X143059998Y-58820000D02*
X143960002Y-58820000D01*
G75*
G02*
X144210000Y-59069998I0J-249998D01*
G01*
X144210000Y-59595002D01*
G75*
G02*
X143960002Y-59845000I-249998J0D01*
G01*
X143059998Y-59845000D01*
G75*
G02*
X142810000Y-59595002I0J249998D01*
G01*
X142810000Y-59069998D01*
G75*
G02*
X143059998Y-58820000I249998J0D01*
G01*
G37*
%TD.AperFunction*%
%TO.P,R2,1*%
%TO.N,+5V*%
%TA.AperFunction,SMDPad,CuDef*%
G36*
G01*
X143059998Y-56995000D02*
X143960002Y-56995000D01*
G75*
G02*
X144210000Y-57244998I0J-249998D01*
G01*
X144210000Y-57770002D01*
G75*
G02*
X143960002Y-58020000I-249998J0D01*
G01*
X143059998Y-58020000D01*
G75*
G02*
X142810000Y-57770002I0J249998D01*
G01*
X142810000Y-57244998D01*
G75*
G02*
X143059998Y-56995000I249998J0D01*
G01*
G37*
%TD.AperFunction*%
%TD*%
%TO.P,R1,2*%
%TO.N,Net-(C1-Pad1)*%
%TA.AperFunction,SMDPad,CuDef*%
G36*
G01*
X138614998Y-58820000D02*
X139515002Y-58820000D01*
G75*
G02*
X139765000Y-59069998I0J-249998D01*
G01*
X139765000Y-59595002D01*
G75*
G02*
X139515002Y-59845000I-249998J0D01*
G01*
X138614998Y-59845000D01*
G75*
G02*
X138365000Y-59595002I0J249998D01*
G01*
X138365000Y-59069998D01*
G75*
G02*
X138614998Y-58820000I249998J0D01*
G01*
G37*
%TD.AperFunction*%
%TO.P,R1,1*%
%TO.N,Net-(D1-Pad1)*%
%TA.AperFunction,SMDPad,CuDef*%
G36*
G01*
X138614998Y-56995000D02*
X139515002Y-56995000D01*
G75*
G02*
X139765000Y-57244998I0J-249998D01*
G01*
X139765000Y-57770002D01*
G75*
G02*
X139515002Y-58020000I-249998J0D01*
G01*
X138614998Y-58020000D01*
G75*
G02*
X138365000Y-57770002I0J249998D01*
G01*
X138365000Y-57244998D01*
G75*
G02*
X138614998Y-56995000I249998J0D01*
G01*
G37*
%TD.AperFunction*%
%TD*%
%TO.P,D2,2*%
%TO.N,+5V*%
%TA.AperFunction,SMDPad,CuDef*%
G36*
G01*
X153770000Y-55663000D02*
X153570000Y-55663000D01*
G75*
G02*
X153470000Y-55563000I0J100000D01*
G01*
X153470000Y-55303000D01*
G75*
G02*
X153570000Y-55203000I100000J0D01*
G01*
X153770000Y-55203000D01*
G75*
G02*
X153870000Y-55303000I0J-100000D01*
G01*
X153870000Y-55563000D01*
G75*
G02*
X153770000Y-55663000I-100000J0D01*
G01*
G37*
%TD.AperFunction*%
%TO.P,D2,1*%
%TO.N,Net-(D2-Pad1)*%
%TA.AperFunction,SMDPad,CuDef*%
G36*
G01*
X153770000Y-56303000D02*
X153570000Y-56303000D01*
G75*
G02*
X153470000Y-56203000I0J100000D01*
G01*
X153470000Y-55943000D01*
G75*
G02*
X153570000Y-55843000I100000J0D01*
G01*
X153770000Y-55843000D01*
G75*
G02*
X153870000Y-55943000I0J-100000D01*
G01*
X153870000Y-56203000D01*
G75*
G02*
X153770000Y-56303000I-100000J0D01*
G01*
G37*
%TD.AperFunction*%
%TD*%
%TO.P,D1,2*%
%TO.N,+5V*%
%TA.AperFunction,SMDPad,CuDef*%
G36*
G01*
X139165000Y-55663000D02*
X138965000Y-55663000D01*
G75*
G02*
X138865000Y-55563000I0J100000D01*
G01*
X138865000Y-55303000D01*
G75*
G02*
X138965000Y-55203000I100000J0D01*
G01*
X139165000Y-55203000D01*
G75*
G02*
X139265000Y-55303000I0J-100000D01*
G01*
X139265000Y-55563000D01*
G75*
G02*
X139165000Y-55663000I-100000J0D01*
G01*
G37*
%TD.AperFunction*%
%TO.P,D1,1*%
%TO.N,Net-(D1-Pad1)*%
%TA.AperFunction,SMDPad,CuDef*%
G36*
G01*
X139165000Y-56303000D02*
X138965000Y-56303000D01*
G75*
G02*
X138865000Y-56203000I0J100000D01*
G01*
X138865000Y-55943000D01*
G75*
G02*
X138965000Y-55843000I100000J0D01*
G01*
X139165000Y-55843000D01*
G75*
G02*
X139265000Y-55943000I0J-100000D01*
G01*
X139265000Y-56203000D01*
G75*
G02*
X139165000Y-56303000I-100000J0D01*
G01*
G37*
%TD.AperFunction*%
%TD*%
D14*
%TO.N,Net-(C1-Pad2)*%
X143510000Y-64856000D02*
X143805000Y-65151000D01*
X143510000Y-59332500D02*
X143510000Y-64856000D01*
X145224500Y-66570500D02*
X143805000Y-65151000D01*
X145224500Y-70104000D02*
X145224500Y-66570500D01*
%TO.N,Net-(C1-Pad1)*%
X139065000Y-64811000D02*
X139405000Y-65151000D01*
X139065000Y-59332500D02*
X139065000Y-64811000D01*
X139405000Y-72005500D02*
X140401000Y-73001500D01*
X139405000Y-65151000D02*
X139405000Y-72005500D01*
%TO.N,Net-(C2-Pad2)*%
X148590000Y-64938000D02*
X148803000Y-65151000D01*
X148590000Y-59332500D02*
X148590000Y-64938000D01*
X148803000Y-65151000D02*
X146367500Y-65151000D01*
X146367500Y-65151000D02*
X146367500Y-72580500D01*
X145946500Y-73001500D02*
X142301000Y-73001500D01*
X146367500Y-72580500D02*
X145946500Y-73001500D01*
%TO.N,Net-(C2-Pad1)*%
X153670000Y-64684000D02*
X153203000Y-65151000D01*
X153670000Y-59332500D02*
X153670000Y-64684000D01*
X153203000Y-70298000D02*
X153350000Y-70445000D01*
X153203000Y-65151000D02*
X153203000Y-70298000D01*
%TO.N,+5V*%
X146981332Y-55451668D02*
X147000000Y-55433000D01*
X148590000Y-57507500D02*
X148590000Y-55451668D01*
X142047000Y-55433000D02*
X147000000Y-55433000D01*
X142070666Y-55456666D02*
X142047000Y-55433000D01*
X143510000Y-57507500D02*
X143510000Y-55456666D01*
X139065000Y-55433000D02*
X142047000Y-55433000D01*
X161099500Y-57086500D02*
X161099500Y-61150500D01*
X159446000Y-55433000D02*
X161099500Y-57086500D01*
X147000000Y-55433000D02*
X159446000Y-55433000D01*
%TO.N,Net-(D1-Pad1)*%
X139065000Y-57507500D02*
X139065000Y-56073000D01*
%TO.N,Net-(D2-Pad1)*%
X153670000Y-57507500D02*
X153670000Y-56073000D01*
%TO.N,GND*%
X152400000Y-74930000D02*
X152400000Y-73065000D01*
X141351000Y-73571502D02*
X141351000Y-70381500D01*
X142645998Y-74866500D02*
X141351000Y-73571502D01*
X148526500Y-74866500D02*
X142645998Y-74866500D01*
X148590000Y-74930000D02*
X148526500Y-74866500D01*
X152400000Y-74930000D02*
X148590000Y-74930000D01*
X161099500Y-73406000D02*
X161099500Y-67150500D01*
X159575500Y-74930000D02*
X161099500Y-73406000D01*
X152400000Y-74930000D02*
X159575500Y-74930000D01*
%TO.N,Net-(J3-Pad1)*%
X151109000Y-70104000D02*
X151450000Y-70445000D01*
X147764500Y-70104000D02*
X151109000Y-70104000D01*
%TD*%
D15*
%TO.N,GND*%
X166994012Y-54519311D02*
X167349926Y-54626768D01*
X167678193Y-54801310D01*
X167966306Y-55036289D01*
X168203289Y-55322753D01*
X168380121Y-55649795D01*
X168490060Y-56004953D01*
X168532001Y-56403991D01*
X168532000Y-73502086D01*
X168492689Y-73903012D01*
X168385232Y-74258928D01*
X168210690Y-74587193D01*
X167975709Y-74875308D01*
X167689247Y-75112289D01*
X167362204Y-75289121D01*
X167007047Y-75399060D01*
X166608019Y-75441000D01*
X138714914Y-75441000D01*
X138313988Y-75401689D01*
X137958072Y-75294232D01*
X137629807Y-75119690D01*
X137341692Y-74884709D01*
X137104711Y-74598247D01*
X136927879Y-74271204D01*
X136817940Y-73916047D01*
X136776000Y-73517019D01*
X136776000Y-64601000D01*
X137295063Y-64601000D01*
X137295063Y-65701000D01*
X137311586Y-65868765D01*
X137360522Y-66030084D01*
X137439989Y-66178755D01*
X137546933Y-66309067D01*
X137677245Y-66416011D01*
X137825916Y-66495478D01*
X137987235Y-66544414D01*
X138155000Y-66560937D01*
X138673000Y-66560937D01*
X138673001Y-71969545D01*
X138669460Y-72005500D01*
X138683592Y-72148996D01*
X138725450Y-72286979D01*
X138780473Y-72389920D01*
X138793421Y-72414145D01*
X138884895Y-72525606D01*
X138912823Y-72548526D01*
X139466063Y-73101767D01*
X139466063Y-73611500D01*
X139477783Y-73730493D01*
X139512492Y-73844913D01*
X139568856Y-73950363D01*
X139644709Y-74042791D01*
X139737137Y-74118644D01*
X139842587Y-74175008D01*
X139957007Y-74209717D01*
X140076000Y-74221437D01*
X140726000Y-74221437D01*
X140844993Y-74209717D01*
X140959413Y-74175008D01*
X141064863Y-74118644D01*
X141157291Y-74042791D01*
X141233144Y-73950363D01*
X141289508Y-73844913D01*
X141324217Y-73730493D01*
X141335937Y-73611500D01*
X141335937Y-72391500D01*
X141324217Y-72272507D01*
X141289508Y-72158087D01*
X141233144Y-72052637D01*
X141157291Y-71960209D01*
X141064863Y-71884356D01*
X140959413Y-71827992D01*
X140844993Y-71793283D01*
X140726000Y-71781563D01*
X140216266Y-71781563D01*
X140137000Y-71702297D01*
X140137000Y-70991500D01*
X140387928Y-70991500D01*
X140400188Y-71115982D01*
X140436498Y-71235680D01*
X140495463Y-71345994D01*
X140574815Y-71442685D01*
X140671506Y-71522037D01*
X140781820Y-71581002D01*
X140901518Y-71617312D01*
X141026000Y-71629572D01*
X141065250Y-71626500D01*
X141224000Y-71467750D01*
X141224000Y-70508500D01*
X141478000Y-70508500D01*
X141478000Y-71467750D01*
X141636750Y-71626500D01*
X141676000Y-71629572D01*
X141800482Y-71617312D01*
X141920180Y-71581002D01*
X142030494Y-71522037D01*
X142127185Y-71442685D01*
X142206537Y-71345994D01*
X142265502Y-71235680D01*
X142301812Y-71115982D01*
X142314072Y-70991500D01*
X142311000Y-70667250D01*
X142152250Y-70508500D01*
X141478000Y-70508500D01*
X141224000Y-70508500D01*
X140549750Y-70508500D01*
X140391000Y-70667250D01*
X140387928Y-70991500D01*
X140137000Y-70991500D01*
X140137000Y-69771500D01*
X140387928Y-69771500D01*
X140391000Y-70095750D01*
X140549750Y-70254500D01*
X141224000Y-70254500D01*
X141224000Y-69295250D01*
X141478000Y-69295250D01*
X141478000Y-70254500D01*
X142152250Y-70254500D01*
X142311000Y-70095750D01*
X142314072Y-69771500D01*
X142301812Y-69647018D01*
X142265502Y-69527320D01*
X142206537Y-69417006D01*
X142127185Y-69320315D01*
X142030494Y-69240963D01*
X141920180Y-69181998D01*
X141800482Y-69145688D01*
X141676000Y-69133428D01*
X141636750Y-69136500D01*
X141478000Y-69295250D01*
X141224000Y-69295250D01*
X141065250Y-69136500D01*
X141026000Y-69133428D01*
X140901518Y-69145688D01*
X140781820Y-69181998D01*
X140671506Y-69240963D01*
X140574815Y-69320315D01*
X140495463Y-69417006D01*
X140436498Y-69527320D01*
X140400188Y-69647018D01*
X140387928Y-69771500D01*
X140137000Y-69771500D01*
X140137000Y-66560937D01*
X140655000Y-66560937D01*
X140822765Y-66544414D01*
X140984084Y-66495478D01*
X141132755Y-66416011D01*
X141263067Y-66309067D01*
X141370011Y-66178755D01*
X141449478Y-66030084D01*
X141498414Y-65868765D01*
X141514937Y-65701000D01*
X141514937Y-64601000D01*
X141498414Y-64433235D01*
X141449478Y-64271916D01*
X141370011Y-64123245D01*
X141263067Y-63992933D01*
X141132755Y-63885989D01*
X140984084Y-63806522D01*
X140822765Y-63757586D01*
X140655000Y-63741063D01*
X139797000Y-63741063D01*
X139797000Y-60403761D01*
X139844085Y-60389478D01*
X139992756Y-60310012D01*
X140123068Y-60203068D01*
X140230012Y-60072756D01*
X140309478Y-59924085D01*
X140358414Y-59762767D01*
X140374937Y-59595002D01*
X140374937Y-59069998D01*
X140358414Y-58902233D01*
X140309478Y-58740915D01*
X140230012Y-58592244D01*
X140123068Y-58461932D01*
X140071974Y-58420000D01*
X140123068Y-58378068D01*
X140230012Y-58247756D01*
X140309478Y-58099085D01*
X140358414Y-57937767D01*
X140374937Y-57770002D01*
X140374937Y-57244998D01*
X140358414Y-57077233D01*
X140309478Y-56915915D01*
X140230012Y-56767244D01*
X140123068Y-56636932D01*
X139992756Y-56529988D01*
X139844085Y-56450522D01*
X139829561Y-56446116D01*
X139861296Y-56341502D01*
X139874937Y-56203000D01*
X139874937Y-56165000D01*
X141884072Y-56165000D01*
X141927170Y-56178074D01*
X142070666Y-56192207D01*
X142214162Y-56178074D01*
X142257260Y-56165000D01*
X142778001Y-56165000D01*
X142778001Y-56436239D01*
X142730915Y-56450522D01*
X142582244Y-56529988D01*
X142451932Y-56636932D01*
X142344988Y-56767244D01*
X142265522Y-56915915D01*
X142216586Y-57077233D01*
X142200063Y-57244998D01*
X142200063Y-57770002D01*
X142216586Y-57937767D01*
X142265522Y-58099085D01*
X142344988Y-58247756D01*
X142451932Y-58378068D01*
X142503026Y-58420000D01*
X142451932Y-58461932D01*
X142344988Y-58592244D01*
X142265522Y-58740915D01*
X142216586Y-58902233D01*
X142200063Y-59069998D01*
X142200063Y-59595002D01*
X142216586Y-59762767D01*
X142265522Y-59924085D01*
X142344988Y-60072756D01*
X142451932Y-60203068D01*
X142582244Y-60310012D01*
X142730915Y-60389478D01*
X142778000Y-60403761D01*
X142778001Y-63741063D01*
X142555000Y-63741063D01*
X142387235Y-63757586D01*
X142225916Y-63806522D01*
X142077245Y-63885989D01*
X141946933Y-63992933D01*
X141839989Y-64123245D01*
X141760522Y-64271916D01*
X141711586Y-64433235D01*
X141695063Y-64601000D01*
X141695063Y-65701000D01*
X141711586Y-65868765D01*
X141760522Y-66030084D01*
X141839989Y-66178755D01*
X141946933Y-66309067D01*
X142077245Y-66416011D01*
X142225916Y-66495478D01*
X142387235Y-66544414D01*
X142555000Y-66560937D01*
X144179733Y-66560937D01*
X144492501Y-66873705D01*
X144492500Y-68900922D01*
X144327590Y-69011112D01*
X144131612Y-69207090D01*
X143977633Y-69437536D01*
X143871570Y-69693593D01*
X143817500Y-69965423D01*
X143817500Y-70242577D01*
X143871570Y-70514407D01*
X143977633Y-70770464D01*
X144131612Y-71000910D01*
X144327590Y-71196888D01*
X144558036Y-71350867D01*
X144814093Y-71456930D01*
X145085923Y-71511000D01*
X145363077Y-71511000D01*
X145634907Y-71456930D01*
X145635501Y-71456684D01*
X145635501Y-72269500D01*
X143223305Y-72269500D01*
X143189508Y-72158087D01*
X143133144Y-72052637D01*
X143057291Y-71960209D01*
X142964863Y-71884356D01*
X142859413Y-71827992D01*
X142744993Y-71793283D01*
X142626000Y-71781563D01*
X141976000Y-71781563D01*
X141857007Y-71793283D01*
X141742587Y-71827992D01*
X141637137Y-71884356D01*
X141544709Y-71960209D01*
X141468856Y-72052637D01*
X141412492Y-72158087D01*
X141377783Y-72272507D01*
X141366063Y-72391500D01*
X141366063Y-73611500D01*
X141377783Y-73730493D01*
X141412492Y-73844913D01*
X141468856Y-73950363D01*
X141544709Y-74042791D01*
X141637137Y-74118644D01*
X141742587Y-74175008D01*
X141857007Y-74209717D01*
X141976000Y-74221437D01*
X142626000Y-74221437D01*
X142744993Y-74209717D01*
X142859413Y-74175008D01*
X142964863Y-74118644D01*
X143057291Y-74042791D01*
X143133144Y-73950363D01*
X143189508Y-73844913D01*
X143223305Y-73733500D01*
X145910555Y-73733500D01*
X145946500Y-73737040D01*
X145982445Y-73733500D01*
X145982453Y-73733500D01*
X146089997Y-73722908D01*
X146227979Y-73681051D01*
X146239299Y-73675000D01*
X151436928Y-73675000D01*
X151449188Y-73799482D01*
X151485498Y-73919180D01*
X151544463Y-74029494D01*
X151623815Y-74126185D01*
X151720506Y-74205537D01*
X151830820Y-74264502D01*
X151950518Y-74300812D01*
X152075000Y-74313072D01*
X152114250Y-74310000D01*
X152273000Y-74151250D01*
X152273000Y-73192000D01*
X152527000Y-73192000D01*
X152527000Y-74151250D01*
X152685750Y-74310000D01*
X152725000Y-74313072D01*
X152849482Y-74300812D01*
X152969180Y-74264502D01*
X153079494Y-74205537D01*
X153176185Y-74126185D01*
X153255537Y-74029494D01*
X153314502Y-73919180D01*
X153350812Y-73799482D01*
X153363072Y-73675000D01*
X153360000Y-73350750D01*
X153201250Y-73192000D01*
X152527000Y-73192000D01*
X152273000Y-73192000D01*
X151598750Y-73192000D01*
X151440000Y-73350750D01*
X151436928Y-73675000D01*
X146239299Y-73675000D01*
X146355145Y-73613080D01*
X146466606Y-73521606D01*
X146489531Y-73493672D01*
X146859672Y-73123531D01*
X146887606Y-73100606D01*
X146979080Y-72989145D01*
X147047051Y-72861979D01*
X147088908Y-72723997D01*
X147099500Y-72616453D01*
X147103041Y-72580500D01*
X147099500Y-72544547D01*
X147099500Y-72455000D01*
X151436928Y-72455000D01*
X151440000Y-72779250D01*
X151598750Y-72938000D01*
X152273000Y-72938000D01*
X152273000Y-71978750D01*
X152527000Y-71978750D01*
X152527000Y-72938000D01*
X153201250Y-72938000D01*
X153360000Y-72779250D01*
X153363072Y-72455000D01*
X153350812Y-72330518D01*
X153314502Y-72210820D01*
X153255537Y-72100506D01*
X153176185Y-72003815D01*
X153079494Y-71924463D01*
X152969180Y-71865498D01*
X152849482Y-71829188D01*
X152725000Y-71816928D01*
X152685750Y-71820000D01*
X152527000Y-71978750D01*
X152273000Y-71978750D01*
X152114250Y-71820000D01*
X152075000Y-71816928D01*
X151950518Y-71829188D01*
X151830820Y-71865498D01*
X151720506Y-71924463D01*
X151623815Y-72003815D01*
X151544463Y-72100506D01*
X151485498Y-72210820D01*
X151449188Y-72330518D01*
X151436928Y-72455000D01*
X147099500Y-72455000D01*
X147099500Y-71351473D01*
X147354093Y-71456930D01*
X147625923Y-71511000D01*
X147903077Y-71511000D01*
X148174907Y-71456930D01*
X148430964Y-71350867D01*
X148661410Y-71196888D01*
X148857388Y-71000910D01*
X148967577Y-70836000D01*
X150515063Y-70836000D01*
X150515063Y-71055000D01*
X150526783Y-71173993D01*
X150561492Y-71288413D01*
X150617856Y-71393863D01*
X150693709Y-71486291D01*
X150786137Y-71562144D01*
X150891587Y-71618508D01*
X151006007Y-71653217D01*
X151125000Y-71664937D01*
X151775000Y-71664937D01*
X151893993Y-71653217D01*
X152008413Y-71618508D01*
X152113863Y-71562144D01*
X152206291Y-71486291D01*
X152282144Y-71393863D01*
X152338508Y-71288413D01*
X152373217Y-71173993D01*
X152384937Y-71055000D01*
X152384937Y-69835000D01*
X152373217Y-69716007D01*
X152338508Y-69601587D01*
X152282144Y-69496137D01*
X152206291Y-69403709D01*
X152113863Y-69327856D01*
X152008413Y-69271492D01*
X151893993Y-69236783D01*
X151775000Y-69225063D01*
X151125000Y-69225063D01*
X151006007Y-69236783D01*
X150891587Y-69271492D01*
X150786137Y-69327856D01*
X150732347Y-69372000D01*
X148967577Y-69372000D01*
X148857388Y-69207090D01*
X148661410Y-69011112D01*
X148430964Y-68857133D01*
X148174907Y-68751070D01*
X147903077Y-68697000D01*
X147625923Y-68697000D01*
X147354093Y-68751070D01*
X147099500Y-68856527D01*
X147099500Y-66428976D01*
X147223916Y-66495478D01*
X147385235Y-66544414D01*
X147553000Y-66560937D01*
X150053000Y-66560937D01*
X150220765Y-66544414D01*
X150382084Y-66495478D01*
X150530755Y-66416011D01*
X150661067Y-66309067D01*
X150768011Y-66178755D01*
X150847478Y-66030084D01*
X150896414Y-65868765D01*
X150912937Y-65701000D01*
X150912937Y-64601000D01*
X150896414Y-64433235D01*
X150847478Y-64271916D01*
X150768011Y-64123245D01*
X150661067Y-63992933D01*
X150530755Y-63885989D01*
X150382084Y-63806522D01*
X150220765Y-63757586D01*
X150053000Y-63741063D01*
X149322000Y-63741063D01*
X149322000Y-60403761D01*
X149369085Y-60389478D01*
X149517756Y-60310012D01*
X149648068Y-60203068D01*
X149755012Y-60072756D01*
X149834478Y-59924085D01*
X149883414Y-59762767D01*
X149899937Y-59595002D01*
X149899937Y-59069998D01*
X149883414Y-58902233D01*
X149834478Y-58740915D01*
X149755012Y-58592244D01*
X149648068Y-58461932D01*
X149596974Y-58420000D01*
X149648068Y-58378068D01*
X149755012Y-58247756D01*
X149834478Y-58099085D01*
X149883414Y-57937767D01*
X149899937Y-57770002D01*
X149899937Y-57244998D01*
X149883414Y-57077233D01*
X149834478Y-56915915D01*
X149755012Y-56767244D01*
X149648068Y-56636932D01*
X149517756Y-56529988D01*
X149369085Y-56450522D01*
X149322000Y-56436239D01*
X149322000Y-56165000D01*
X152860063Y-56165000D01*
X152860063Y-56203000D01*
X152873704Y-56341502D01*
X152905439Y-56446116D01*
X152890915Y-56450522D01*
X152742244Y-56529988D01*
X152611932Y-56636932D01*
X152504988Y-56767244D01*
X152425522Y-56915915D01*
X152376586Y-57077233D01*
X152360063Y-57244998D01*
X152360063Y-57770002D01*
X152376586Y-57937767D01*
X152425522Y-58099085D01*
X152504988Y-58247756D01*
X152611932Y-58378068D01*
X152663026Y-58420000D01*
X152611932Y-58461932D01*
X152504988Y-58592244D01*
X152425522Y-58740915D01*
X152376586Y-58902233D01*
X152360063Y-59069998D01*
X152360063Y-59595002D01*
X152376586Y-59762767D01*
X152425522Y-59924085D01*
X152504988Y-60072756D01*
X152611932Y-60203068D01*
X152742244Y-60310012D01*
X152890915Y-60389478D01*
X152938000Y-60403761D01*
X152938001Y-63741063D01*
X151953000Y-63741063D01*
X151785235Y-63757586D01*
X151623916Y-63806522D01*
X151475245Y-63885989D01*
X151344933Y-63992933D01*
X151237989Y-64123245D01*
X151158522Y-64271916D01*
X151109586Y-64433235D01*
X151093063Y-64601000D01*
X151093063Y-65701000D01*
X151109586Y-65868765D01*
X151158522Y-66030084D01*
X151237989Y-66178755D01*
X151344933Y-66309067D01*
X151475245Y-66416011D01*
X151623916Y-66495478D01*
X151785235Y-66544414D01*
X151953000Y-66560937D01*
X152471000Y-66560937D01*
X152471001Y-69583797D01*
X152461492Y-69601587D01*
X152426783Y-69716007D01*
X152415063Y-69835000D01*
X152415063Y-71055000D01*
X152426783Y-71173993D01*
X152461492Y-71288413D01*
X152517856Y-71393863D01*
X152593709Y-71486291D01*
X152686137Y-71562144D01*
X152791587Y-71618508D01*
X152906007Y-71653217D01*
X153025000Y-71664937D01*
X153675000Y-71664937D01*
X153793993Y-71653217D01*
X153908413Y-71618508D01*
X154013863Y-71562144D01*
X154106291Y-71486291D01*
X154182144Y-71393863D01*
X154238508Y-71288413D01*
X154273217Y-71173993D01*
X154284937Y-71055000D01*
X154284937Y-69835000D01*
X154273217Y-69716007D01*
X154238508Y-69601587D01*
X154182144Y-69496137D01*
X154106291Y-69403709D01*
X154013863Y-69327856D01*
X153935000Y-69285703D01*
X153935000Y-68650500D01*
X158711428Y-68650500D01*
X158723688Y-68774982D01*
X158759998Y-68894680D01*
X158818963Y-69004994D01*
X158898315Y-69101685D01*
X158995006Y-69181037D01*
X159105320Y-69240002D01*
X159225018Y-69276312D01*
X159349500Y-69288572D01*
X160813750Y-69285500D01*
X160972500Y-69126750D01*
X160972500Y-67277500D01*
X161226500Y-67277500D01*
X161226500Y-69126750D01*
X161385250Y-69285500D01*
X162849500Y-69288572D01*
X162973982Y-69276312D01*
X163093680Y-69240002D01*
X163203994Y-69181037D01*
X163300685Y-69101685D01*
X163380037Y-69004994D01*
X163439002Y-68894680D01*
X163475312Y-68774982D01*
X163487572Y-68650500D01*
X163484500Y-67436250D01*
X163325750Y-67277500D01*
X161226500Y-67277500D01*
X160972500Y-67277500D01*
X158873250Y-67277500D01*
X158714500Y-67436250D01*
X158711428Y-68650500D01*
X153935000Y-68650500D01*
X153935000Y-66560937D01*
X154453000Y-66560937D01*
X154620765Y-66544414D01*
X154782084Y-66495478D01*
X154930755Y-66416011D01*
X155061067Y-66309067D01*
X155168011Y-66178755D01*
X155247478Y-66030084D01*
X155296414Y-65868765D01*
X155312937Y-65701000D01*
X155312937Y-65650500D01*
X158711428Y-65650500D01*
X158714500Y-66864750D01*
X158873250Y-67023500D01*
X160972500Y-67023500D01*
X160972500Y-65174250D01*
X161226500Y-65174250D01*
X161226500Y-67023500D01*
X163325750Y-67023500D01*
X163484500Y-66864750D01*
X163487572Y-65650500D01*
X163475312Y-65526018D01*
X163439002Y-65406320D01*
X163380037Y-65296006D01*
X163300685Y-65199315D01*
X163203994Y-65119963D01*
X163093680Y-65060998D01*
X162973982Y-65024688D01*
X162849500Y-65012428D01*
X161385250Y-65015500D01*
X161226500Y-65174250D01*
X160972500Y-65174250D01*
X160813750Y-65015500D01*
X159349500Y-65012428D01*
X159225018Y-65024688D01*
X159105320Y-65060998D01*
X158995006Y-65119963D01*
X158898315Y-65199315D01*
X158818963Y-65296006D01*
X158759998Y-65406320D01*
X158723688Y-65526018D01*
X158711428Y-65650500D01*
X155312937Y-65650500D01*
X155312937Y-64601000D01*
X155296414Y-64433235D01*
X155247478Y-64271916D01*
X155168011Y-64123245D01*
X155061067Y-63992933D01*
X154930755Y-63885989D01*
X154782084Y-63806522D01*
X154620765Y-63757586D01*
X154453000Y-63741063D01*
X154402000Y-63741063D01*
X154402000Y-60403761D01*
X154449085Y-60389478D01*
X154597756Y-60310012D01*
X154728068Y-60203068D01*
X154835012Y-60072756D01*
X154914478Y-59924085D01*
X154963414Y-59762767D01*
X154979937Y-59595002D01*
X154979937Y-59069998D01*
X154963414Y-58902233D01*
X154914478Y-58740915D01*
X154835012Y-58592244D01*
X154728068Y-58461932D01*
X154676974Y-58420000D01*
X154728068Y-58378068D01*
X154835012Y-58247756D01*
X154914478Y-58099085D01*
X154963414Y-57937767D01*
X154979937Y-57770002D01*
X154979937Y-57244998D01*
X154963414Y-57077233D01*
X154914478Y-56915915D01*
X154835012Y-56767244D01*
X154728068Y-56636932D01*
X154597756Y-56529988D01*
X154449085Y-56450522D01*
X154434561Y-56446116D01*
X154466296Y-56341502D01*
X154479937Y-56203000D01*
X154479937Y-56165000D01*
X159142797Y-56165000D01*
X160367500Y-57389704D01*
X160367500Y-58790563D01*
X159349500Y-58790563D01*
X159230507Y-58802283D01*
X159116087Y-58836992D01*
X159010637Y-58893356D01*
X158918209Y-58969209D01*
X158842356Y-59061637D01*
X158785992Y-59167087D01*
X158751283Y-59281507D01*
X158739563Y-59400500D01*
X158739563Y-62900500D01*
X158751283Y-63019493D01*
X158785992Y-63133913D01*
X158842356Y-63239363D01*
X158918209Y-63331791D01*
X159010637Y-63407644D01*
X159116087Y-63464008D01*
X159230507Y-63498717D01*
X159349500Y-63510437D01*
X162849500Y-63510437D01*
X162968493Y-63498717D01*
X163082913Y-63464008D01*
X163188363Y-63407644D01*
X163280791Y-63331791D01*
X163326987Y-63275500D01*
X163439563Y-63275500D01*
X163439563Y-65025500D01*
X163468096Y-65315197D01*
X163552597Y-65593761D01*
X163689820Y-65850487D01*
X163874491Y-66075509D01*
X164099513Y-66260180D01*
X164356239Y-66397403D01*
X164634803Y-66481904D01*
X164924500Y-66510437D01*
X166674500Y-66510437D01*
X166964197Y-66481904D01*
X167242761Y-66397403D01*
X167499487Y-66260180D01*
X167724509Y-66075509D01*
X167909180Y-65850487D01*
X168046403Y-65593761D01*
X168130904Y-65315197D01*
X168159437Y-65025500D01*
X168159437Y-63275500D01*
X168130904Y-62985803D01*
X168046403Y-62707239D01*
X167909180Y-62450513D01*
X167724509Y-62225491D01*
X167499487Y-62040820D01*
X167242761Y-61903597D01*
X166964197Y-61819096D01*
X166674500Y-61790563D01*
X164924500Y-61790563D01*
X164634803Y-61819096D01*
X164356239Y-61903597D01*
X164099513Y-62040820D01*
X163874491Y-62225491D01*
X163689820Y-62450513D01*
X163552597Y-62707239D01*
X163468096Y-62985803D01*
X163439563Y-63275500D01*
X163326987Y-63275500D01*
X163356644Y-63239363D01*
X163413008Y-63133913D01*
X163447717Y-63019493D01*
X163459437Y-62900500D01*
X163459437Y-59400500D01*
X163447717Y-59281507D01*
X163413008Y-59167087D01*
X163356644Y-59061637D01*
X163280791Y-58969209D01*
X163188363Y-58893356D01*
X163082913Y-58836992D01*
X162968493Y-58802283D01*
X162849500Y-58790563D01*
X161831500Y-58790563D01*
X161831500Y-57122442D01*
X161835040Y-57086499D01*
X161831500Y-57050556D01*
X161831500Y-57050547D01*
X161820908Y-56943003D01*
X161779051Y-56805021D01*
X161711080Y-56677855D01*
X161677495Y-56636932D01*
X161642524Y-56594320D01*
X161642522Y-56594318D01*
X161619605Y-56566394D01*
X161591682Y-56543478D01*
X159989030Y-54940827D01*
X159966106Y-54912894D01*
X159854645Y-54821420D01*
X159727479Y-54753449D01*
X159589497Y-54711592D01*
X159481953Y-54701000D01*
X159481945Y-54701000D01*
X159446000Y-54697460D01*
X159410055Y-54701000D01*
X154142514Y-54701000D01*
X154041681Y-54647104D01*
X153908502Y-54606704D01*
X153770000Y-54593063D01*
X153570000Y-54593063D01*
X153431498Y-54606704D01*
X153298319Y-54647104D01*
X153197486Y-54701000D01*
X147035953Y-54701000D01*
X147000000Y-54697459D01*
X146964047Y-54701000D01*
X142082945Y-54701000D01*
X142047000Y-54697460D01*
X142011055Y-54701000D01*
X139537514Y-54701000D01*
X139436681Y-54647104D01*
X139303502Y-54606704D01*
X139165000Y-54593063D01*
X138965000Y-54593063D01*
X138826498Y-54606704D01*
X138693319Y-54647104D01*
X138570580Y-54712709D01*
X138462999Y-54800999D01*
X138374709Y-54908580D01*
X138309104Y-55031319D01*
X138268704Y-55164498D01*
X138255063Y-55303000D01*
X138255063Y-55563000D01*
X138268704Y-55701502D01*
X138284326Y-55753000D01*
X138268704Y-55804498D01*
X138255063Y-55943000D01*
X138255063Y-56203000D01*
X138268704Y-56341502D01*
X138300439Y-56446116D01*
X138285915Y-56450522D01*
X138137244Y-56529988D01*
X138006932Y-56636932D01*
X137899988Y-56767244D01*
X137820522Y-56915915D01*
X137771586Y-57077233D01*
X137755063Y-57244998D01*
X137755063Y-57770002D01*
X137771586Y-57937767D01*
X137820522Y-58099085D01*
X137899988Y-58247756D01*
X138006932Y-58378068D01*
X138058026Y-58420000D01*
X138006932Y-58461932D01*
X137899988Y-58592244D01*
X137820522Y-58740915D01*
X137771586Y-58902233D01*
X137755063Y-59069998D01*
X137755063Y-59595002D01*
X137771586Y-59762767D01*
X137820522Y-59924085D01*
X137899988Y-60072756D01*
X138006932Y-60203068D01*
X138137244Y-60310012D01*
X138285915Y-60389478D01*
X138333000Y-60403761D01*
X138333001Y-63741063D01*
X138155000Y-63741063D01*
X137987235Y-63757586D01*
X137825916Y-63806522D01*
X137677245Y-63885989D01*
X137546933Y-63992933D01*
X137439989Y-64123245D01*
X137360522Y-64271916D01*
X137311586Y-64433235D01*
X137295063Y-64601000D01*
X136776000Y-64601000D01*
X136776000Y-56418913D01*
X136815311Y-56017988D01*
X136922768Y-55662074D01*
X137097310Y-55333807D01*
X137332289Y-55045694D01*
X137618753Y-54808711D01*
X137945795Y-54631879D01*
X138300953Y-54521940D01*
X138699981Y-54480000D01*
X166593087Y-54480000D01*
X166994012Y-54519311D01*
%TA.AperFunction,Conductor*%
D16*
G36*
X166994012Y-54519311D02*
G01*
X167349926Y-54626768D01*
X167678193Y-54801310D01*
X167966306Y-55036289D01*
X168203289Y-55322753D01*
X168380121Y-55649795D01*
X168490060Y-56004953D01*
X168532001Y-56403991D01*
X168532000Y-73502086D01*
X168492689Y-73903012D01*
X168385232Y-74258928D01*
X168210690Y-74587193D01*
X167975709Y-74875308D01*
X167689247Y-75112289D01*
X167362204Y-75289121D01*
X167007047Y-75399060D01*
X166608019Y-75441000D01*
X138714914Y-75441000D01*
X138313988Y-75401689D01*
X137958072Y-75294232D01*
X137629807Y-75119690D01*
X137341692Y-74884709D01*
X137104711Y-74598247D01*
X136927879Y-74271204D01*
X136817940Y-73916047D01*
X136776000Y-73517019D01*
X136776000Y-64601000D01*
X137295063Y-64601000D01*
X137295063Y-65701000D01*
X137311586Y-65868765D01*
X137360522Y-66030084D01*
X137439989Y-66178755D01*
X137546933Y-66309067D01*
X137677245Y-66416011D01*
X137825916Y-66495478D01*
X137987235Y-66544414D01*
X138155000Y-66560937D01*
X138673000Y-66560937D01*
X138673001Y-71969545D01*
X138669460Y-72005500D01*
X138683592Y-72148996D01*
X138725450Y-72286979D01*
X138780473Y-72389920D01*
X138793421Y-72414145D01*
X138884895Y-72525606D01*
X138912823Y-72548526D01*
X139466063Y-73101767D01*
X139466063Y-73611500D01*
X139477783Y-73730493D01*
X139512492Y-73844913D01*
X139568856Y-73950363D01*
X139644709Y-74042791D01*
X139737137Y-74118644D01*
X139842587Y-74175008D01*
X139957007Y-74209717D01*
X140076000Y-74221437D01*
X140726000Y-74221437D01*
X140844993Y-74209717D01*
X140959413Y-74175008D01*
X141064863Y-74118644D01*
X141157291Y-74042791D01*
X141233144Y-73950363D01*
X141289508Y-73844913D01*
X141324217Y-73730493D01*
X141335937Y-73611500D01*
X141335937Y-72391500D01*
X141324217Y-72272507D01*
X141289508Y-72158087D01*
X141233144Y-72052637D01*
X141157291Y-71960209D01*
X141064863Y-71884356D01*
X140959413Y-71827992D01*
X140844993Y-71793283D01*
X140726000Y-71781563D01*
X140216266Y-71781563D01*
X140137000Y-71702297D01*
X140137000Y-70991500D01*
X140387928Y-70991500D01*
X140400188Y-71115982D01*
X140436498Y-71235680D01*
X140495463Y-71345994D01*
X140574815Y-71442685D01*
X140671506Y-71522037D01*
X140781820Y-71581002D01*
X140901518Y-71617312D01*
X141026000Y-71629572D01*
X141065250Y-71626500D01*
X141224000Y-71467750D01*
X141224000Y-70508500D01*
X141478000Y-70508500D01*
X141478000Y-71467750D01*
X141636750Y-71626500D01*
X141676000Y-71629572D01*
X141800482Y-71617312D01*
X141920180Y-71581002D01*
X142030494Y-71522037D01*
X142127185Y-71442685D01*
X142206537Y-71345994D01*
X142265502Y-71235680D01*
X142301812Y-71115982D01*
X142314072Y-70991500D01*
X142311000Y-70667250D01*
X142152250Y-70508500D01*
X141478000Y-70508500D01*
X141224000Y-70508500D01*
X140549750Y-70508500D01*
X140391000Y-70667250D01*
X140387928Y-70991500D01*
X140137000Y-70991500D01*
X140137000Y-69771500D01*
X140387928Y-69771500D01*
X140391000Y-70095750D01*
X140549750Y-70254500D01*
X141224000Y-70254500D01*
X141224000Y-69295250D01*
X141478000Y-69295250D01*
X141478000Y-70254500D01*
X142152250Y-70254500D01*
X142311000Y-70095750D01*
X142314072Y-69771500D01*
X142301812Y-69647018D01*
X142265502Y-69527320D01*
X142206537Y-69417006D01*
X142127185Y-69320315D01*
X142030494Y-69240963D01*
X141920180Y-69181998D01*
X141800482Y-69145688D01*
X141676000Y-69133428D01*
X141636750Y-69136500D01*
X141478000Y-69295250D01*
X141224000Y-69295250D01*
X141065250Y-69136500D01*
X141026000Y-69133428D01*
X140901518Y-69145688D01*
X140781820Y-69181998D01*
X140671506Y-69240963D01*
X140574815Y-69320315D01*
X140495463Y-69417006D01*
X140436498Y-69527320D01*
X140400188Y-69647018D01*
X140387928Y-69771500D01*
X140137000Y-69771500D01*
X140137000Y-66560937D01*
X140655000Y-66560937D01*
X140822765Y-66544414D01*
X140984084Y-66495478D01*
X141132755Y-66416011D01*
X141263067Y-66309067D01*
X141370011Y-66178755D01*
X141449478Y-66030084D01*
X141498414Y-65868765D01*
X141514937Y-65701000D01*
X141514937Y-64601000D01*
X141498414Y-64433235D01*
X141449478Y-64271916D01*
X141370011Y-64123245D01*
X141263067Y-63992933D01*
X141132755Y-63885989D01*
X140984084Y-63806522D01*
X140822765Y-63757586D01*
X140655000Y-63741063D01*
X139797000Y-63741063D01*
X139797000Y-60403761D01*
X139844085Y-60389478D01*
X139992756Y-60310012D01*
X140123068Y-60203068D01*
X140230012Y-60072756D01*
X140309478Y-59924085D01*
X140358414Y-59762767D01*
X140374937Y-59595002D01*
X140374937Y-59069998D01*
X140358414Y-58902233D01*
X140309478Y-58740915D01*
X140230012Y-58592244D01*
X140123068Y-58461932D01*
X140071974Y-58420000D01*
X140123068Y-58378068D01*
X140230012Y-58247756D01*
X140309478Y-58099085D01*
X140358414Y-57937767D01*
X140374937Y-57770002D01*
X140374937Y-57244998D01*
X140358414Y-57077233D01*
X140309478Y-56915915D01*
X140230012Y-56767244D01*
X140123068Y-56636932D01*
X139992756Y-56529988D01*
X139844085Y-56450522D01*
X139829561Y-56446116D01*
X139861296Y-56341502D01*
X139874937Y-56203000D01*
X139874937Y-56165000D01*
X141884072Y-56165000D01*
X141927170Y-56178074D01*
X142070666Y-56192207D01*
X142214162Y-56178074D01*
X142257260Y-56165000D01*
X142778001Y-56165000D01*
X142778001Y-56436239D01*
X142730915Y-56450522D01*
X142582244Y-56529988D01*
X142451932Y-56636932D01*
X142344988Y-56767244D01*
X142265522Y-56915915D01*
X142216586Y-57077233D01*
X142200063Y-57244998D01*
X142200063Y-57770002D01*
X142216586Y-57937767D01*
X142265522Y-58099085D01*
X142344988Y-58247756D01*
X142451932Y-58378068D01*
X142503026Y-58420000D01*
X142451932Y-58461932D01*
X142344988Y-58592244D01*
X142265522Y-58740915D01*
X142216586Y-58902233D01*
X142200063Y-59069998D01*
X142200063Y-59595002D01*
X142216586Y-59762767D01*
X142265522Y-59924085D01*
X142344988Y-60072756D01*
X142451932Y-60203068D01*
X142582244Y-60310012D01*
X142730915Y-60389478D01*
X142778000Y-60403761D01*
X142778001Y-63741063D01*
X142555000Y-63741063D01*
X142387235Y-63757586D01*
X142225916Y-63806522D01*
X142077245Y-63885989D01*
X141946933Y-63992933D01*
X141839989Y-64123245D01*
X141760522Y-64271916D01*
X141711586Y-64433235D01*
X141695063Y-64601000D01*
X141695063Y-65701000D01*
X141711586Y-65868765D01*
X141760522Y-66030084D01*
X141839989Y-66178755D01*
X141946933Y-66309067D01*
X142077245Y-66416011D01*
X142225916Y-66495478D01*
X142387235Y-66544414D01*
X142555000Y-66560937D01*
X144179733Y-66560937D01*
X144492501Y-66873705D01*
X144492500Y-68900922D01*
X144327590Y-69011112D01*
X144131612Y-69207090D01*
X143977633Y-69437536D01*
X143871570Y-69693593D01*
X143817500Y-69965423D01*
X143817500Y-70242577D01*
X143871570Y-70514407D01*
X143977633Y-70770464D01*
X144131612Y-71000910D01*
X144327590Y-71196888D01*
X144558036Y-71350867D01*
X144814093Y-71456930D01*
X145085923Y-71511000D01*
X145363077Y-71511000D01*
X145634907Y-71456930D01*
X145635501Y-71456684D01*
X145635501Y-72269500D01*
X143223305Y-72269500D01*
X143189508Y-72158087D01*
X143133144Y-72052637D01*
X143057291Y-71960209D01*
X142964863Y-71884356D01*
X142859413Y-71827992D01*
X142744993Y-71793283D01*
X142626000Y-71781563D01*
X141976000Y-71781563D01*
X141857007Y-71793283D01*
X141742587Y-71827992D01*
X141637137Y-71884356D01*
X141544709Y-71960209D01*
X141468856Y-72052637D01*
X141412492Y-72158087D01*
X141377783Y-72272507D01*
X141366063Y-72391500D01*
X141366063Y-73611500D01*
X141377783Y-73730493D01*
X141412492Y-73844913D01*
X141468856Y-73950363D01*
X141544709Y-74042791D01*
X141637137Y-74118644D01*
X141742587Y-74175008D01*
X141857007Y-74209717D01*
X141976000Y-74221437D01*
X142626000Y-74221437D01*
X142744993Y-74209717D01*
X142859413Y-74175008D01*
X142964863Y-74118644D01*
X143057291Y-74042791D01*
X143133144Y-73950363D01*
X143189508Y-73844913D01*
X143223305Y-73733500D01*
X145910555Y-73733500D01*
X145946500Y-73737040D01*
X145982445Y-73733500D01*
X145982453Y-73733500D01*
X146089997Y-73722908D01*
X146227979Y-73681051D01*
X146239299Y-73675000D01*
X151436928Y-73675000D01*
X151449188Y-73799482D01*
X151485498Y-73919180D01*
X151544463Y-74029494D01*
X151623815Y-74126185D01*
X151720506Y-74205537D01*
X151830820Y-74264502D01*
X151950518Y-74300812D01*
X152075000Y-74313072D01*
X152114250Y-74310000D01*
X152273000Y-74151250D01*
X152273000Y-73192000D01*
X152527000Y-73192000D01*
X152527000Y-74151250D01*
X152685750Y-74310000D01*
X152725000Y-74313072D01*
X152849482Y-74300812D01*
X152969180Y-74264502D01*
X153079494Y-74205537D01*
X153176185Y-74126185D01*
X153255537Y-74029494D01*
X153314502Y-73919180D01*
X153350812Y-73799482D01*
X153363072Y-73675000D01*
X153360000Y-73350750D01*
X153201250Y-73192000D01*
X152527000Y-73192000D01*
X152273000Y-73192000D01*
X151598750Y-73192000D01*
X151440000Y-73350750D01*
X151436928Y-73675000D01*
X146239299Y-73675000D01*
X146355145Y-73613080D01*
X146466606Y-73521606D01*
X146489531Y-73493672D01*
X146859672Y-73123531D01*
X146887606Y-73100606D01*
X146979080Y-72989145D01*
X147047051Y-72861979D01*
X147088908Y-72723997D01*
X147099500Y-72616453D01*
X147103041Y-72580500D01*
X147099500Y-72544547D01*
X147099500Y-72455000D01*
X151436928Y-72455000D01*
X151440000Y-72779250D01*
X151598750Y-72938000D01*
X152273000Y-72938000D01*
X152273000Y-71978750D01*
X152527000Y-71978750D01*
X152527000Y-72938000D01*
X153201250Y-72938000D01*
X153360000Y-72779250D01*
X153363072Y-72455000D01*
X153350812Y-72330518D01*
X153314502Y-72210820D01*
X153255537Y-72100506D01*
X153176185Y-72003815D01*
X153079494Y-71924463D01*
X152969180Y-71865498D01*
X152849482Y-71829188D01*
X152725000Y-71816928D01*
X152685750Y-71820000D01*
X152527000Y-71978750D01*
X152273000Y-71978750D01*
X152114250Y-71820000D01*
X152075000Y-71816928D01*
X151950518Y-71829188D01*
X151830820Y-71865498D01*
X151720506Y-71924463D01*
X151623815Y-72003815D01*
X151544463Y-72100506D01*
X151485498Y-72210820D01*
X151449188Y-72330518D01*
X151436928Y-72455000D01*
X147099500Y-72455000D01*
X147099500Y-71351473D01*
X147354093Y-71456930D01*
X147625923Y-71511000D01*
X147903077Y-71511000D01*
X148174907Y-71456930D01*
X148430964Y-71350867D01*
X148661410Y-71196888D01*
X148857388Y-71000910D01*
X148967577Y-70836000D01*
X150515063Y-70836000D01*
X150515063Y-71055000D01*
X150526783Y-71173993D01*
X150561492Y-71288413D01*
X150617856Y-71393863D01*
X150693709Y-71486291D01*
X150786137Y-71562144D01*
X150891587Y-71618508D01*
X151006007Y-71653217D01*
X151125000Y-71664937D01*
X151775000Y-71664937D01*
X151893993Y-71653217D01*
X152008413Y-71618508D01*
X152113863Y-71562144D01*
X152206291Y-71486291D01*
X152282144Y-71393863D01*
X152338508Y-71288413D01*
X152373217Y-71173993D01*
X152384937Y-71055000D01*
X152384937Y-69835000D01*
X152373217Y-69716007D01*
X152338508Y-69601587D01*
X152282144Y-69496137D01*
X152206291Y-69403709D01*
X152113863Y-69327856D01*
X152008413Y-69271492D01*
X151893993Y-69236783D01*
X151775000Y-69225063D01*
X151125000Y-69225063D01*
X151006007Y-69236783D01*
X150891587Y-69271492D01*
X150786137Y-69327856D01*
X150732347Y-69372000D01*
X148967577Y-69372000D01*
X148857388Y-69207090D01*
X148661410Y-69011112D01*
X148430964Y-68857133D01*
X148174907Y-68751070D01*
X147903077Y-68697000D01*
X147625923Y-68697000D01*
X147354093Y-68751070D01*
X147099500Y-68856527D01*
X147099500Y-66428976D01*
X147223916Y-66495478D01*
X147385235Y-66544414D01*
X147553000Y-66560937D01*
X150053000Y-66560937D01*
X150220765Y-66544414D01*
X150382084Y-66495478D01*
X150530755Y-66416011D01*
X150661067Y-66309067D01*
X150768011Y-66178755D01*
X150847478Y-66030084D01*
X150896414Y-65868765D01*
X150912937Y-65701000D01*
X150912937Y-64601000D01*
X150896414Y-64433235D01*
X150847478Y-64271916D01*
X150768011Y-64123245D01*
X150661067Y-63992933D01*
X150530755Y-63885989D01*
X150382084Y-63806522D01*
X150220765Y-63757586D01*
X150053000Y-63741063D01*
X149322000Y-63741063D01*
X149322000Y-60403761D01*
X149369085Y-60389478D01*
X149517756Y-60310012D01*
X149648068Y-60203068D01*
X149755012Y-60072756D01*
X149834478Y-59924085D01*
X149883414Y-59762767D01*
X149899937Y-59595002D01*
X149899937Y-59069998D01*
X149883414Y-58902233D01*
X149834478Y-58740915D01*
X149755012Y-58592244D01*
X149648068Y-58461932D01*
X149596974Y-58420000D01*
X149648068Y-58378068D01*
X149755012Y-58247756D01*
X149834478Y-58099085D01*
X149883414Y-57937767D01*
X149899937Y-57770002D01*
X149899937Y-57244998D01*
X149883414Y-57077233D01*
X149834478Y-56915915D01*
X149755012Y-56767244D01*
X149648068Y-56636932D01*
X149517756Y-56529988D01*
X149369085Y-56450522D01*
X149322000Y-56436239D01*
X149322000Y-56165000D01*
X152860063Y-56165000D01*
X152860063Y-56203000D01*
X152873704Y-56341502D01*
X152905439Y-56446116D01*
X152890915Y-56450522D01*
X152742244Y-56529988D01*
X152611932Y-56636932D01*
X152504988Y-56767244D01*
X152425522Y-56915915D01*
X152376586Y-57077233D01*
X152360063Y-57244998D01*
X152360063Y-57770002D01*
X152376586Y-57937767D01*
X152425522Y-58099085D01*
X152504988Y-58247756D01*
X152611932Y-58378068D01*
X152663026Y-58420000D01*
X152611932Y-58461932D01*
X152504988Y-58592244D01*
X152425522Y-58740915D01*
X152376586Y-58902233D01*
X152360063Y-59069998D01*
X152360063Y-59595002D01*
X152376586Y-59762767D01*
X152425522Y-59924085D01*
X152504988Y-60072756D01*
X152611932Y-60203068D01*
X152742244Y-60310012D01*
X152890915Y-60389478D01*
X152938000Y-60403761D01*
X152938001Y-63741063D01*
X151953000Y-63741063D01*
X151785235Y-63757586D01*
X151623916Y-63806522D01*
X151475245Y-63885989D01*
X151344933Y-63992933D01*
X151237989Y-64123245D01*
X151158522Y-64271916D01*
X151109586Y-64433235D01*
X151093063Y-64601000D01*
X151093063Y-65701000D01*
X151109586Y-65868765D01*
X151158522Y-66030084D01*
X151237989Y-66178755D01*
X151344933Y-66309067D01*
X151475245Y-66416011D01*
X151623916Y-66495478D01*
X151785235Y-66544414D01*
X151953000Y-66560937D01*
X152471000Y-66560937D01*
X152471001Y-69583797D01*
X152461492Y-69601587D01*
X152426783Y-69716007D01*
X152415063Y-69835000D01*
X152415063Y-71055000D01*
X152426783Y-71173993D01*
X152461492Y-71288413D01*
X152517856Y-71393863D01*
X152593709Y-71486291D01*
X152686137Y-71562144D01*
X152791587Y-71618508D01*
X152906007Y-71653217D01*
X153025000Y-71664937D01*
X153675000Y-71664937D01*
X153793993Y-71653217D01*
X153908413Y-71618508D01*
X154013863Y-71562144D01*
X154106291Y-71486291D01*
X154182144Y-71393863D01*
X154238508Y-71288413D01*
X154273217Y-71173993D01*
X154284937Y-71055000D01*
X154284937Y-69835000D01*
X154273217Y-69716007D01*
X154238508Y-69601587D01*
X154182144Y-69496137D01*
X154106291Y-69403709D01*
X154013863Y-69327856D01*
X153935000Y-69285703D01*
X153935000Y-68650500D01*
X158711428Y-68650500D01*
X158723688Y-68774982D01*
X158759998Y-68894680D01*
X158818963Y-69004994D01*
X158898315Y-69101685D01*
X158995006Y-69181037D01*
X159105320Y-69240002D01*
X159225018Y-69276312D01*
X159349500Y-69288572D01*
X160813750Y-69285500D01*
X160972500Y-69126750D01*
X160972500Y-67277500D01*
X161226500Y-67277500D01*
X161226500Y-69126750D01*
X161385250Y-69285500D01*
X162849500Y-69288572D01*
X162973982Y-69276312D01*
X163093680Y-69240002D01*
X163203994Y-69181037D01*
X163300685Y-69101685D01*
X163380037Y-69004994D01*
X163439002Y-68894680D01*
X163475312Y-68774982D01*
X163487572Y-68650500D01*
X163484500Y-67436250D01*
X163325750Y-67277500D01*
X161226500Y-67277500D01*
X160972500Y-67277500D01*
X158873250Y-67277500D01*
X158714500Y-67436250D01*
X158711428Y-68650500D01*
X153935000Y-68650500D01*
X153935000Y-66560937D01*
X154453000Y-66560937D01*
X154620765Y-66544414D01*
X154782084Y-66495478D01*
X154930755Y-66416011D01*
X155061067Y-66309067D01*
X155168011Y-66178755D01*
X155247478Y-66030084D01*
X155296414Y-65868765D01*
X155312937Y-65701000D01*
X155312937Y-65650500D01*
X158711428Y-65650500D01*
X158714500Y-66864750D01*
X158873250Y-67023500D01*
X160972500Y-67023500D01*
X160972500Y-65174250D01*
X161226500Y-65174250D01*
X161226500Y-67023500D01*
X163325750Y-67023500D01*
X163484500Y-66864750D01*
X163487572Y-65650500D01*
X163475312Y-65526018D01*
X163439002Y-65406320D01*
X163380037Y-65296006D01*
X163300685Y-65199315D01*
X163203994Y-65119963D01*
X163093680Y-65060998D01*
X162973982Y-65024688D01*
X162849500Y-65012428D01*
X161385250Y-65015500D01*
X161226500Y-65174250D01*
X160972500Y-65174250D01*
X160813750Y-65015500D01*
X159349500Y-65012428D01*
X159225018Y-65024688D01*
X159105320Y-65060998D01*
X158995006Y-65119963D01*
X158898315Y-65199315D01*
X158818963Y-65296006D01*
X158759998Y-65406320D01*
X158723688Y-65526018D01*
X158711428Y-65650500D01*
X155312937Y-65650500D01*
X155312937Y-64601000D01*
X155296414Y-64433235D01*
X155247478Y-64271916D01*
X155168011Y-64123245D01*
X155061067Y-63992933D01*
X154930755Y-63885989D01*
X154782084Y-63806522D01*
X154620765Y-63757586D01*
X154453000Y-63741063D01*
X154402000Y-63741063D01*
X154402000Y-60403761D01*
X154449085Y-60389478D01*
X154597756Y-60310012D01*
X154728068Y-60203068D01*
X154835012Y-60072756D01*
X154914478Y-59924085D01*
X154963414Y-59762767D01*
X154979937Y-59595002D01*
X154979937Y-59069998D01*
X154963414Y-58902233D01*
X154914478Y-58740915D01*
X154835012Y-58592244D01*
X154728068Y-58461932D01*
X154676974Y-58420000D01*
X154728068Y-58378068D01*
X154835012Y-58247756D01*
X154914478Y-58099085D01*
X154963414Y-57937767D01*
X154979937Y-57770002D01*
X154979937Y-57244998D01*
X154963414Y-57077233D01*
X154914478Y-56915915D01*
X154835012Y-56767244D01*
X154728068Y-56636932D01*
X154597756Y-56529988D01*
X154449085Y-56450522D01*
X154434561Y-56446116D01*
X154466296Y-56341502D01*
X154479937Y-56203000D01*
X154479937Y-56165000D01*
X159142797Y-56165000D01*
X160367500Y-57389704D01*
X160367500Y-58790563D01*
X159349500Y-58790563D01*
X159230507Y-58802283D01*
X159116087Y-58836992D01*
X159010637Y-58893356D01*
X158918209Y-58969209D01*
X158842356Y-59061637D01*
X158785992Y-59167087D01*
X158751283Y-59281507D01*
X158739563Y-59400500D01*
X158739563Y-62900500D01*
X158751283Y-63019493D01*
X158785992Y-63133913D01*
X158842356Y-63239363D01*
X158918209Y-63331791D01*
X159010637Y-63407644D01*
X159116087Y-63464008D01*
X159230507Y-63498717D01*
X159349500Y-63510437D01*
X162849500Y-63510437D01*
X162968493Y-63498717D01*
X163082913Y-63464008D01*
X163188363Y-63407644D01*
X163280791Y-63331791D01*
X163326987Y-63275500D01*
X163439563Y-63275500D01*
X163439563Y-65025500D01*
X163468096Y-65315197D01*
X163552597Y-65593761D01*
X163689820Y-65850487D01*
X163874491Y-66075509D01*
X164099513Y-66260180D01*
X164356239Y-66397403D01*
X164634803Y-66481904D01*
X164924500Y-66510437D01*
X166674500Y-66510437D01*
X166964197Y-66481904D01*
X167242761Y-66397403D01*
X167499487Y-66260180D01*
X167724509Y-66075509D01*
X167909180Y-65850487D01*
X168046403Y-65593761D01*
X168130904Y-65315197D01*
X168159437Y-65025500D01*
X168159437Y-63275500D01*
X168130904Y-62985803D01*
X168046403Y-62707239D01*
X167909180Y-62450513D01*
X167724509Y-62225491D01*
X167499487Y-62040820D01*
X167242761Y-61903597D01*
X166964197Y-61819096D01*
X166674500Y-61790563D01*
X164924500Y-61790563D01*
X164634803Y-61819096D01*
X164356239Y-61903597D01*
X164099513Y-62040820D01*
X163874491Y-62225491D01*
X163689820Y-62450513D01*
X163552597Y-62707239D01*
X163468096Y-62985803D01*
X163439563Y-63275500D01*
X163326987Y-63275500D01*
X163356644Y-63239363D01*
X163413008Y-63133913D01*
X163447717Y-63019493D01*
X163459437Y-62900500D01*
X163459437Y-59400500D01*
X163447717Y-59281507D01*
X163413008Y-59167087D01*
X163356644Y-59061637D01*
X163280791Y-58969209D01*
X163188363Y-58893356D01*
X163082913Y-58836992D01*
X162968493Y-58802283D01*
X162849500Y-58790563D01*
X161831500Y-58790563D01*
X161831500Y-57122442D01*
X161835040Y-57086499D01*
X161831500Y-57050556D01*
X161831500Y-57050547D01*
X161820908Y-56943003D01*
X161779051Y-56805021D01*
X161711080Y-56677855D01*
X161677495Y-56636932D01*
X161642524Y-56594320D01*
X161642522Y-56594318D01*
X161619605Y-56566394D01*
X161591682Y-56543478D01*
X159989030Y-54940827D01*
X159966106Y-54912894D01*
X159854645Y-54821420D01*
X159727479Y-54753449D01*
X159589497Y-54711592D01*
X159481953Y-54701000D01*
X159481945Y-54701000D01*
X159446000Y-54697460D01*
X159410055Y-54701000D01*
X154142514Y-54701000D01*
X154041681Y-54647104D01*
X153908502Y-54606704D01*
X153770000Y-54593063D01*
X153570000Y-54593063D01*
X153431498Y-54606704D01*
X153298319Y-54647104D01*
X153197486Y-54701000D01*
X147035953Y-54701000D01*
X147000000Y-54697459D01*
X146964047Y-54701000D01*
X142082945Y-54701000D01*
X142047000Y-54697460D01*
X142011055Y-54701000D01*
X139537514Y-54701000D01*
X139436681Y-54647104D01*
X139303502Y-54606704D01*
X139165000Y-54593063D01*
X138965000Y-54593063D01*
X138826498Y-54606704D01*
X138693319Y-54647104D01*
X138570580Y-54712709D01*
X138462999Y-54800999D01*
X138374709Y-54908580D01*
X138309104Y-55031319D01*
X138268704Y-55164498D01*
X138255063Y-55303000D01*
X138255063Y-55563000D01*
X138268704Y-55701502D01*
X138284326Y-55753000D01*
X138268704Y-55804498D01*
X138255063Y-55943000D01*
X138255063Y-56203000D01*
X138268704Y-56341502D01*
X138300439Y-56446116D01*
X138285915Y-56450522D01*
X138137244Y-56529988D01*
X138006932Y-56636932D01*
X137899988Y-56767244D01*
X137820522Y-56915915D01*
X137771586Y-57077233D01*
X137755063Y-57244998D01*
X137755063Y-57770002D01*
X137771586Y-57937767D01*
X137820522Y-58099085D01*
X137899988Y-58247756D01*
X138006932Y-58378068D01*
X138058026Y-58420000D01*
X138006932Y-58461932D01*
X137899988Y-58592244D01*
X137820522Y-58740915D01*
X137771586Y-58902233D01*
X137755063Y-59069998D01*
X137755063Y-59595002D01*
X137771586Y-59762767D01*
X137820522Y-59924085D01*
X137899988Y-60072756D01*
X138006932Y-60203068D01*
X138137244Y-60310012D01*
X138285915Y-60389478D01*
X138333000Y-60403761D01*
X138333001Y-63741063D01*
X138155000Y-63741063D01*
X137987235Y-63757586D01*
X137825916Y-63806522D01*
X137677245Y-63885989D01*
X137546933Y-63992933D01*
X137439989Y-64123245D01*
X137360522Y-64271916D01*
X137311586Y-64433235D01*
X137295063Y-64601000D01*
X136776000Y-64601000D01*
X136776000Y-56418913D01*
X136815311Y-56017988D01*
X136922768Y-55662074D01*
X137097310Y-55333807D01*
X137332289Y-55045694D01*
X137618753Y-54808711D01*
X137945795Y-54631879D01*
X138300953Y-54521940D01*
X138699981Y-54480000D01*
X166593087Y-54480000D01*
X166994012Y-54519311D01*
G37*
%TD.AperFunction*%
%TD*%
D17*
X142225916Y-66495478D02*
X142387235Y-66544414D01*
X142555000Y-66560937D01*
X144179733Y-66560937D01*
X144492501Y-66873705D01*
X144492500Y-68900922D01*
X144327590Y-69011112D01*
X144131612Y-69207090D01*
X143977633Y-69437536D01*
X143871570Y-69693593D01*
X143817500Y-69965423D01*
X143817500Y-70242577D01*
X143871570Y-70514407D01*
X143977633Y-70770464D01*
X144131612Y-71000910D01*
X144327590Y-71196888D01*
X144558036Y-71350867D01*
X144814093Y-71456930D01*
X145085923Y-71511000D01*
X145363077Y-71511000D01*
X145634907Y-71456930D01*
X145635501Y-71456684D01*
X145635501Y-72256484D01*
X145440263Y-72269500D01*
X143223305Y-72269500D01*
X143189508Y-72158087D01*
X143133144Y-72052637D01*
X143057291Y-71960209D01*
X142964863Y-71884356D01*
X142859413Y-71827992D01*
X142744993Y-71793283D01*
X142626000Y-71781563D01*
X142083000Y-71781563D01*
X142083000Y-71442726D01*
X142107291Y-71422791D01*
X142183144Y-71330363D01*
X142239508Y-71224913D01*
X142274217Y-71110493D01*
X142285937Y-70991500D01*
X142285937Y-69771500D01*
X142274217Y-69652507D01*
X142239508Y-69538087D01*
X142183144Y-69432637D01*
X142107291Y-69340209D01*
X142014863Y-69264356D01*
X141948498Y-69228883D01*
X142128216Y-66443256D01*
X142225916Y-66495478D01*
%TA.AperFunction,NonConductor*%
D18*
G36*
X142225916Y-66495478D02*
G01*
X142387235Y-66544414D01*
X142555000Y-66560937D01*
X144179733Y-66560937D01*
X144492501Y-66873705D01*
X144492500Y-68900922D01*
X144327590Y-69011112D01*
X144131612Y-69207090D01*
X143977633Y-69437536D01*
X143871570Y-69693593D01*
X143817500Y-69965423D01*
X143817500Y-70242577D01*
X143871570Y-70514407D01*
X143977633Y-70770464D01*
X144131612Y-71000910D01*
X144327590Y-71196888D01*
X144558036Y-71350867D01*
X144814093Y-71456930D01*
X145085923Y-71511000D01*
X145363077Y-71511000D01*
X145634907Y-71456930D01*
X145635501Y-71456684D01*
X145635501Y-72256484D01*
X145440263Y-72269500D01*
X143223305Y-72269500D01*
X143189508Y-72158087D01*
X143133144Y-72052637D01*
X143057291Y-71960209D01*
X142964863Y-71884356D01*
X142859413Y-71827992D01*
X142744993Y-71793283D01*
X142626000Y-71781563D01*
X142083000Y-71781563D01*
X142083000Y-71442726D01*
X142107291Y-71422791D01*
X142183144Y-71330363D01*
X142239508Y-71224913D01*
X142274217Y-71110493D01*
X142285937Y-70991500D01*
X142285937Y-69771500D01*
X142274217Y-69652507D01*
X142239508Y-69538087D01*
X142183144Y-69432637D01*
X142107291Y-69340209D01*
X142014863Y-69264356D01*
X141948498Y-69228883D01*
X142128216Y-66443256D01*
X142225916Y-66495478D01*
G37*
%TD.AperFunction*%
D17*
X149225000Y-72017184D02*
X147099500Y-72158884D01*
X147099500Y-71351473D01*
X147354093Y-71456930D01*
X147625923Y-71511000D01*
X147903077Y-71511000D01*
X148174907Y-71456930D01*
X148430964Y-71350867D01*
X148661410Y-71196888D01*
X148857388Y-71000910D01*
X148967577Y-70836000D01*
X149225000Y-70836000D01*
X149225000Y-72017184D01*
%TA.AperFunction,NonConductor*%
D18*
G36*
X149225000Y-72017184D02*
G01*
X147099500Y-72158884D01*
X147099500Y-71351473D01*
X147354093Y-71456930D01*
X147625923Y-71511000D01*
X147903077Y-71511000D01*
X148174907Y-71456930D01*
X148430964Y-71350867D01*
X148661410Y-71196888D01*
X148857388Y-71000910D01*
X148967577Y-70836000D01*
X149225000Y-70836000D01*
X149225000Y-72017184D01*
G37*
%TD.AperFunction*%
D17*
X147223916Y-66495478D02*
X147385235Y-66544414D01*
X147553000Y-66560937D01*
X149225000Y-66560937D01*
X149225000Y-69372000D01*
X148967577Y-69372000D01*
X148857388Y-69207090D01*
X148661410Y-69011112D01*
X148430964Y-68857133D01*
X148174907Y-68751070D01*
X147903077Y-68697000D01*
X147625923Y-68697000D01*
X147354093Y-68751070D01*
X147099500Y-68856527D01*
X147099500Y-66428976D01*
X147223916Y-66495478D01*
%TA.AperFunction,NonConductor*%
D18*
G36*
X147223916Y-66495478D02*
G01*
X147385235Y-66544414D01*
X147553000Y-66560937D01*
X149225000Y-66560937D01*
X149225000Y-69372000D01*
X148967577Y-69372000D01*
X148857388Y-69207090D01*
X148661410Y-69011112D01*
X148430964Y-68857133D01*
X148174907Y-68751070D01*
X147903077Y-68697000D01*
X147625923Y-68697000D01*
X147354093Y-68751070D01*
X147099500Y-68856527D01*
X147099500Y-66428976D01*
X147223916Y-66495478D01*
G37*
%TD.AperFunction*%
D17*
X146837836Y-56173076D02*
X146981332Y-56187208D01*
X147124828Y-56173076D01*
X147151450Y-56165000D01*
X147858001Y-56165000D01*
X147858001Y-56436239D01*
X147810915Y-56450522D01*
X147662244Y-56529988D01*
X147531932Y-56636932D01*
X147424988Y-56767244D01*
X147345522Y-56915915D01*
X147296586Y-57077233D01*
X147280063Y-57244998D01*
X147280063Y-57770002D01*
X147296586Y-57937767D01*
X147345522Y-58099085D01*
X147424988Y-58247756D01*
X147531932Y-58378068D01*
X147583026Y-58420000D01*
X147531932Y-58461932D01*
X147424988Y-58592244D01*
X147345522Y-58740915D01*
X147296586Y-58902233D01*
X147280063Y-59069998D01*
X147280063Y-59595002D01*
X147296586Y-59762767D01*
X147345522Y-59924085D01*
X147424988Y-60072756D01*
X147531932Y-60203068D01*
X147662244Y-60310012D01*
X147810915Y-60389478D01*
X147858000Y-60403761D01*
X147858001Y-63741063D01*
X147553000Y-63741063D01*
X147385235Y-63757586D01*
X147223916Y-63806522D01*
X147075245Y-63885989D01*
X146944933Y-63992933D01*
X146837989Y-64123245D01*
X146758522Y-64271916D01*
X146713904Y-64419000D01*
X146403453Y-64419000D01*
X146367500Y-64415459D01*
X146331547Y-64419000D01*
X146224003Y-64429592D01*
X146086021Y-64471449D01*
X145958855Y-64539420D01*
X145912610Y-64577372D01*
X145898414Y-64433235D01*
X145849478Y-64271916D01*
X145770011Y-64123245D01*
X145663067Y-63992933D01*
X145532755Y-63885989D01*
X145384084Y-63806522D01*
X145222765Y-63757586D01*
X145055000Y-63741063D01*
X144242000Y-63741063D01*
X144242000Y-60403761D01*
X144289085Y-60389478D01*
X144437756Y-60310012D01*
X144568068Y-60203068D01*
X144675012Y-60072756D01*
X144754478Y-59924085D01*
X144803414Y-59762767D01*
X144819937Y-59595002D01*
X144819937Y-59069998D01*
X144803414Y-58902233D01*
X144754478Y-58740915D01*
X144675012Y-58592244D01*
X144568068Y-58461932D01*
X144516974Y-58420000D01*
X144568068Y-58378068D01*
X144675012Y-58247756D01*
X144754478Y-58099085D01*
X144803414Y-57937767D01*
X144819937Y-57770002D01*
X144819937Y-57244998D01*
X144803414Y-57077233D01*
X144754478Y-56915915D01*
X144675012Y-56767244D01*
X144568068Y-56636932D01*
X144437756Y-56529988D01*
X144289085Y-56450522D01*
X144242000Y-56436239D01*
X144242000Y-56165000D01*
X146811214Y-56165000D01*
X146837836Y-56173076D01*
%TA.AperFunction,NonConductor*%
D18*
G36*
X146837836Y-56173076D02*
G01*
X146981332Y-56187208D01*
X147124828Y-56173076D01*
X147151450Y-56165000D01*
X147858001Y-56165000D01*
X147858001Y-56436239D01*
X147810915Y-56450522D01*
X147662244Y-56529988D01*
X147531932Y-56636932D01*
X147424988Y-56767244D01*
X147345522Y-56915915D01*
X147296586Y-57077233D01*
X147280063Y-57244998D01*
X147280063Y-57770002D01*
X147296586Y-57937767D01*
X147345522Y-58099085D01*
X147424988Y-58247756D01*
X147531932Y-58378068D01*
X147583026Y-58420000D01*
X147531932Y-58461932D01*
X147424988Y-58592244D01*
X147345522Y-58740915D01*
X147296586Y-58902233D01*
X147280063Y-59069998D01*
X147280063Y-59595002D01*
X147296586Y-59762767D01*
X147345522Y-59924085D01*
X147424988Y-60072756D01*
X147531932Y-60203068D01*
X147662244Y-60310012D01*
X147810915Y-60389478D01*
X147858000Y-60403761D01*
X147858001Y-63741063D01*
X147553000Y-63741063D01*
X147385235Y-63757586D01*
X147223916Y-63806522D01*
X147075245Y-63885989D01*
X146944933Y-63992933D01*
X146837989Y-64123245D01*
X146758522Y-64271916D01*
X146713904Y-64419000D01*
X146403453Y-64419000D01*
X146367500Y-64415459D01*
X146331547Y-64419000D01*
X146224003Y-64429592D01*
X146086021Y-64471449D01*
X145958855Y-64539420D01*
X145912610Y-64577372D01*
X145898414Y-64433235D01*
X145849478Y-64271916D01*
X145770011Y-64123245D01*
X145663067Y-63992933D01*
X145532755Y-63885989D01*
X145384084Y-63806522D01*
X145222765Y-63757586D01*
X145055000Y-63741063D01*
X144242000Y-63741063D01*
X144242000Y-60403761D01*
X144289085Y-60389478D01*
X144437756Y-60310012D01*
X144568068Y-60203068D01*
X144675012Y-60072756D01*
X144754478Y-59924085D01*
X144803414Y-59762767D01*
X144819937Y-59595002D01*
X144819937Y-59069998D01*
X144803414Y-58902233D01*
X144754478Y-58740915D01*
X144675012Y-58592244D01*
X144568068Y-58461932D01*
X144516974Y-58420000D01*
X144568068Y-58378068D01*
X144675012Y-58247756D01*
X144754478Y-58099085D01*
X144803414Y-57937767D01*
X144819937Y-57770002D01*
X144819937Y-57244998D01*
X144803414Y-57077233D01*
X144754478Y-56915915D01*
X144675012Y-56767244D01*
X144568068Y-56636932D01*
X144437756Y-56529988D01*
X144289085Y-56450522D01*
X144242000Y-56436239D01*
X144242000Y-56165000D01*
X146811214Y-56165000D01*
X146837836Y-56173076D01*
G37*
%TD.AperFunction*%
D17*
X142582244Y-60310012D02*
X142730915Y-60389478D01*
X142778000Y-60403761D01*
X142778001Y-63741063D01*
X142555000Y-63741063D01*
X142387235Y-63757586D01*
X142299773Y-63784117D01*
X142526842Y-60264545D01*
X142582244Y-60310012D01*
%TA.AperFunction,NonConductor*%
D18*
G36*
X142582244Y-60310012D02*
G01*
X142730915Y-60389478D01*
X142778000Y-60403761D01*
X142778001Y-63741063D01*
X142555000Y-63741063D01*
X142387235Y-63757586D01*
X142299773Y-63784117D01*
X142526842Y-60264545D01*
X142582244Y-60310012D01*
G37*
%TD.AperFunction*%
D17*
X142778001Y-56436239D02*
X142773747Y-56437530D01*
X142778001Y-56371585D01*
X142778001Y-56436239D01*
%TA.AperFunction,NonConductor*%
D18*
G36*
X142778001Y-56436239D02*
G01*
X142773747Y-56437530D01*
X142778001Y-56371585D01*
X142778001Y-56436239D01*
G37*
%TD.AperFunction*%
M02*
