%TF.GenerationSoftware,KiCad,Pcbnew,(5.1.10)-1*%
%TF.CreationDate,2021-09-02T17:40:54+03:00*%
%TF.ProjectId,Multivibrator,4d756c74-6976-4696-9272-61746f722e6b,rev?*%
%TF.SameCoordinates,Original*%
%TF.FileFunction,Paste,Top*%
%TF.FilePolarity,Positive*%
%FSLAX46Y46*%
G04 Gerber Fmt 4.6, Leading zero omitted, Abs format (unit mm)*
G04 Created by KiCad (PCBNEW (5.1.10)-1) date 2021-09-02 17:40:54*
%MOMM*%
%LPD*%
G01*
G04 APERTURE LIST*
%ADD10R,0.650000X1.220000*%
G04 APERTURE END LIST*
%TO.C,C2*%
G36*
G01*
X150303000Y-64601000D02*
X150303000Y-65701000D01*
G75*
G02*
X150053000Y-65951000I-250000J0D01*
G01*
X147553000Y-65951000D01*
G75*
G02*
X147303000Y-65701000I0J250000D01*
G01*
X147303000Y-64601000D01*
G75*
G02*
X147553000Y-64351000I250000J0D01*
G01*
X150053000Y-64351000D01*
G75*
G02*
X150303000Y-64601000I0J-250000D01*
G01*
G37*
G36*
G01*
X154703000Y-64601000D02*
X154703000Y-65701000D01*
G75*
G02*
X154453000Y-65951000I-250000J0D01*
G01*
X151953000Y-65951000D01*
G75*
G02*
X151703000Y-65701000I0J250000D01*
G01*
X151703000Y-64601000D01*
G75*
G02*
X151953000Y-64351000I250000J0D01*
G01*
X154453000Y-64351000D01*
G75*
G02*
X154703000Y-64601000I0J-250000D01*
G01*
G37*
%TD*%
D10*
%TO.C,Q2*%
X152400000Y-73065000D03*
X151450000Y-70445000D03*
X153350000Y-70445000D03*
%TD*%
%TO.C,Q1*%
X141351000Y-70381500D03*
X142301000Y-73001500D03*
X140401000Y-73001500D03*
%TD*%
%TO.C,C1*%
G36*
G01*
X142305000Y-65701000D02*
X142305000Y-64601000D01*
G75*
G02*
X142555000Y-64351000I250000J0D01*
G01*
X145055000Y-64351000D01*
G75*
G02*
X145305000Y-64601000I0J-250000D01*
G01*
X145305000Y-65701000D01*
G75*
G02*
X145055000Y-65951000I-250000J0D01*
G01*
X142555000Y-65951000D01*
G75*
G02*
X142305000Y-65701000I0J250000D01*
G01*
G37*
G36*
G01*
X137905000Y-65701000D02*
X137905000Y-64601000D01*
G75*
G02*
X138155000Y-64351000I250000J0D01*
G01*
X140655000Y-64351000D01*
G75*
G02*
X140905000Y-64601000I0J-250000D01*
G01*
X140905000Y-65701000D01*
G75*
G02*
X140655000Y-65951000I-250000J0D01*
G01*
X138155000Y-65951000D01*
G75*
G02*
X137905000Y-65701000I0J250000D01*
G01*
G37*
%TD*%
%TO.C,R4*%
G36*
G01*
X153219998Y-58820000D02*
X154120002Y-58820000D01*
G75*
G02*
X154370000Y-59069998I0J-249998D01*
G01*
X154370000Y-59595002D01*
G75*
G02*
X154120002Y-59845000I-249998J0D01*
G01*
X153219998Y-59845000D01*
G75*
G02*
X152970000Y-59595002I0J249998D01*
G01*
X152970000Y-59069998D01*
G75*
G02*
X153219998Y-58820000I249998J0D01*
G01*
G37*
G36*
G01*
X153219998Y-56995000D02*
X154120002Y-56995000D01*
G75*
G02*
X154370000Y-57244998I0J-249998D01*
G01*
X154370000Y-57770002D01*
G75*
G02*
X154120002Y-58020000I-249998J0D01*
G01*
X153219998Y-58020000D01*
G75*
G02*
X152970000Y-57770002I0J249998D01*
G01*
X152970000Y-57244998D01*
G75*
G02*
X153219998Y-56995000I249998J0D01*
G01*
G37*
%TD*%
%TO.C,R5*%
G36*
G01*
X148139998Y-58820000D02*
X149040002Y-58820000D01*
G75*
G02*
X149290000Y-59069998I0J-249998D01*
G01*
X149290000Y-59595002D01*
G75*
G02*
X149040002Y-59845000I-249998J0D01*
G01*
X148139998Y-59845000D01*
G75*
G02*
X147890000Y-59595002I0J249998D01*
G01*
X147890000Y-59069998D01*
G75*
G02*
X148139998Y-58820000I249998J0D01*
G01*
G37*
G36*
G01*
X148139998Y-56995000D02*
X149040002Y-56995000D01*
G75*
G02*
X149290000Y-57244998I0J-249998D01*
G01*
X149290000Y-57770002D01*
G75*
G02*
X149040002Y-58020000I-249998J0D01*
G01*
X148139998Y-58020000D01*
G75*
G02*
X147890000Y-57770002I0J249998D01*
G01*
X147890000Y-57244998D01*
G75*
G02*
X148139998Y-56995000I249998J0D01*
G01*
G37*
%TD*%
%TO.C,R2*%
G36*
G01*
X143059998Y-58820000D02*
X143960002Y-58820000D01*
G75*
G02*
X144210000Y-59069998I0J-249998D01*
G01*
X144210000Y-59595002D01*
G75*
G02*
X143960002Y-59845000I-249998J0D01*
G01*
X143059998Y-59845000D01*
G75*
G02*
X142810000Y-59595002I0J249998D01*
G01*
X142810000Y-59069998D01*
G75*
G02*
X143059998Y-58820000I249998J0D01*
G01*
G37*
G36*
G01*
X143059998Y-56995000D02*
X143960002Y-56995000D01*
G75*
G02*
X144210000Y-57244998I0J-249998D01*
G01*
X144210000Y-57770002D01*
G75*
G02*
X143960002Y-58020000I-249998J0D01*
G01*
X143059998Y-58020000D01*
G75*
G02*
X142810000Y-57770002I0J249998D01*
G01*
X142810000Y-57244998D01*
G75*
G02*
X143059998Y-56995000I249998J0D01*
G01*
G37*
%TD*%
%TO.C,R1*%
G36*
G01*
X138614998Y-58820000D02*
X139515002Y-58820000D01*
G75*
G02*
X139765000Y-59069998I0J-249998D01*
G01*
X139765000Y-59595002D01*
G75*
G02*
X139515002Y-59845000I-249998J0D01*
G01*
X138614998Y-59845000D01*
G75*
G02*
X138365000Y-59595002I0J249998D01*
G01*
X138365000Y-59069998D01*
G75*
G02*
X138614998Y-58820000I249998J0D01*
G01*
G37*
G36*
G01*
X138614998Y-56995000D02*
X139515002Y-56995000D01*
G75*
G02*
X139765000Y-57244998I0J-249998D01*
G01*
X139765000Y-57770002D01*
G75*
G02*
X139515002Y-58020000I-249998J0D01*
G01*
X138614998Y-58020000D01*
G75*
G02*
X138365000Y-57770002I0J249998D01*
G01*
X138365000Y-57244998D01*
G75*
G02*
X138614998Y-56995000I249998J0D01*
G01*
G37*
%TD*%
%TO.C,D2*%
G36*
G01*
X153770500Y-55567000D02*
X153569500Y-55567000D01*
G75*
G02*
X153490000Y-55487500I0J79500D01*
G01*
X153490000Y-55328500D01*
G75*
G02*
X153569500Y-55249000I79500J0D01*
G01*
X153770500Y-55249000D01*
G75*
G02*
X153850000Y-55328500I0J-79500D01*
G01*
X153850000Y-55487500D01*
G75*
G02*
X153770500Y-55567000I-79500J0D01*
G01*
G37*
G36*
G01*
X153770500Y-56257000D02*
X153569500Y-56257000D01*
G75*
G02*
X153490000Y-56177500I0J79500D01*
G01*
X153490000Y-56018500D01*
G75*
G02*
X153569500Y-55939000I79500J0D01*
G01*
X153770500Y-55939000D01*
G75*
G02*
X153850000Y-56018500I0J-79500D01*
G01*
X153850000Y-56177500D01*
G75*
G02*
X153770500Y-56257000I-79500J0D01*
G01*
G37*
%TD*%
%TO.C,D1*%
G36*
G01*
X139165500Y-55567000D02*
X138964500Y-55567000D01*
G75*
G02*
X138885000Y-55487500I0J79500D01*
G01*
X138885000Y-55328500D01*
G75*
G02*
X138964500Y-55249000I79500J0D01*
G01*
X139165500Y-55249000D01*
G75*
G02*
X139245000Y-55328500I0J-79500D01*
G01*
X139245000Y-55487500D01*
G75*
G02*
X139165500Y-55567000I-79500J0D01*
G01*
G37*
G36*
G01*
X139165500Y-56257000D02*
X138964500Y-56257000D01*
G75*
G02*
X138885000Y-56177500I0J79500D01*
G01*
X138885000Y-56018500D01*
G75*
G02*
X138964500Y-55939000I79500J0D01*
G01*
X139165500Y-55939000D01*
G75*
G02*
X139245000Y-56018500I0J-79500D01*
G01*
X139245000Y-56177500D01*
G75*
G02*
X139165500Y-56257000I-79500J0D01*
G01*
G37*
%TD*%
M02*
