%TF.GenerationSoftware,KiCad,Pcbnew,(5.1.10)-1*%
%TF.CreationDate,2021-09-02T17:40:54+03:00*%
%TF.ProjectId,Multivibrator,4d756c74-6976-4696-9272-61746f722e6b,rev?*%
%TF.SameCoordinates,Original*%
%TF.FileFunction,Copper,L2,Bot*%
%TF.FilePolarity,Positive*%
%FSLAX46Y46*%
G04 Gerber Fmt 4.6, Leading zero omitted, Abs format (unit mm)*
G04 Created by KiCad (PCBNEW (5.1.10)-1) date 2021-09-02 17:40:54*
%MOMM*%
%LPD*%
G01*
G04 APERTURE LIST*
%TA.AperFunction,ComponentPad*%
%ADD10O,1.600000X1.600000*%
%TD*%
%TA.AperFunction,ComponentPad*%
%ADD11C,1.600000*%
%TD*%
%TA.AperFunction,ComponentPad*%
%ADD12R,3.500000X3.500000*%
%TD*%
%TA.AperFunction,NonConductor*%
%ADD13C,0.254000*%
%TD*%
%TA.AperFunction,NonConductor*%
%ADD14C,0.100000*%
%TD*%
G04 APERTURE END LIST*
D10*
%TO.P,J3,2*%
%TO.N,Net-(C1-Pad2)*%
X145224500Y-70104000D03*
D11*
%TO.P,J3,1*%
%TO.N,Net-(J3-Pad1)*%
X147764500Y-70104000D03*
%TD*%
%TO.P,J1,3*%
%TO.N,N/C*%
%TA.AperFunction,ComponentPad*%
G36*
G01*
X166674500Y-65900500D02*
X164924500Y-65900500D01*
G75*
G02*
X164049500Y-65025500I0J875000D01*
G01*
X164049500Y-63275500D01*
G75*
G02*
X164924500Y-62400500I875000J0D01*
G01*
X166674500Y-62400500D01*
G75*
G02*
X167549500Y-63275500I0J-875000D01*
G01*
X167549500Y-65025500D01*
G75*
G02*
X166674500Y-65900500I-875000J0D01*
G01*
G37*
%TD.AperFunction*%
%TO.P,J1,2*%
%TO.N,GND*%
%TA.AperFunction,ComponentPad*%
G36*
G01*
X162099500Y-68650500D02*
X160099500Y-68650500D01*
G75*
G02*
X159349500Y-67900500I0J750000D01*
G01*
X159349500Y-66400500D01*
G75*
G02*
X160099500Y-65650500I750000J0D01*
G01*
X162099500Y-65650500D01*
G75*
G02*
X162849500Y-66400500I0J-750000D01*
G01*
X162849500Y-67900500D01*
G75*
G02*
X162099500Y-68650500I-750000J0D01*
G01*
G37*
%TD.AperFunction*%
D12*
%TO.P,J1,1*%
%TO.N,+5V*%
X161099500Y-61150500D03*
%TD*%
D13*
X167009628Y-54440459D02*
X167380562Y-54552451D01*
X167722680Y-54734359D01*
X168022946Y-54979251D01*
X168269932Y-55277806D01*
X168454223Y-55618644D01*
X168568802Y-55988787D01*
X168612001Y-56399796D01*
X168612000Y-73505998D01*
X168571541Y-73918627D01*
X168459551Y-74289558D01*
X168277642Y-74631679D01*
X168032752Y-74931944D01*
X167734194Y-75178932D01*
X167393356Y-75363223D01*
X167023208Y-75477803D01*
X166612214Y-75521000D01*
X138711002Y-75521000D01*
X138298373Y-75480541D01*
X137927442Y-75368551D01*
X137585321Y-75186642D01*
X137285056Y-74941752D01*
X137038068Y-74643194D01*
X136853777Y-74302356D01*
X136739197Y-73932208D01*
X136696000Y-73521214D01*
X136696000Y-69973302D01*
X143897500Y-69973302D01*
X143897500Y-70234698D01*
X143948496Y-70491072D01*
X144048528Y-70732570D01*
X144193752Y-70949913D01*
X144378587Y-71134748D01*
X144595930Y-71279972D01*
X144837428Y-71380004D01*
X145093802Y-71431000D01*
X145355198Y-71431000D01*
X145611572Y-71380004D01*
X145853070Y-71279972D01*
X146070413Y-71134748D01*
X146255248Y-70949913D01*
X146400472Y-70732570D01*
X146494500Y-70505567D01*
X146588528Y-70732570D01*
X146733752Y-70949913D01*
X146918587Y-71134748D01*
X147135930Y-71279972D01*
X147377428Y-71380004D01*
X147633802Y-71431000D01*
X147895198Y-71431000D01*
X148151572Y-71380004D01*
X148393070Y-71279972D01*
X148610413Y-71134748D01*
X148795248Y-70949913D01*
X148940472Y-70732570D01*
X149040504Y-70491072D01*
X149091500Y-70234698D01*
X149091500Y-69973302D01*
X149040504Y-69716928D01*
X148940472Y-69475430D01*
X148795248Y-69258087D01*
X148610413Y-69073252D01*
X148393070Y-68928028D01*
X148151572Y-68827996D01*
X147895198Y-68777000D01*
X147633802Y-68777000D01*
X147377428Y-68827996D01*
X147135930Y-68928028D01*
X146918587Y-69073252D01*
X146733752Y-69258087D01*
X146588528Y-69475430D01*
X146494500Y-69702433D01*
X146400472Y-69475430D01*
X146255248Y-69258087D01*
X146070413Y-69073252D01*
X145853070Y-68928028D01*
X145611572Y-68827996D01*
X145355198Y-68777000D01*
X145093802Y-68777000D01*
X144837428Y-68827996D01*
X144595930Y-68928028D01*
X144378587Y-69073252D01*
X144193752Y-69258087D01*
X144048528Y-69475430D01*
X143948496Y-69716928D01*
X143897500Y-69973302D01*
X136696000Y-69973302D01*
X136696000Y-66400500D01*
X158819951Y-66400500D01*
X158819951Y-67900500D01*
X158844537Y-68150128D01*
X158917351Y-68390162D01*
X159035594Y-68611379D01*
X159194722Y-68805278D01*
X159388621Y-68964406D01*
X159609838Y-69082649D01*
X159849872Y-69155463D01*
X160099500Y-69180049D01*
X162099500Y-69180049D01*
X162349128Y-69155463D01*
X162589162Y-69082649D01*
X162810379Y-68964406D01*
X163004278Y-68805278D01*
X163163406Y-68611379D01*
X163281649Y-68390162D01*
X163354463Y-68150128D01*
X163379049Y-67900500D01*
X163379049Y-66400500D01*
X163354463Y-66150872D01*
X163281649Y-65910838D01*
X163163406Y-65689621D01*
X163004278Y-65495722D01*
X162810379Y-65336594D01*
X162589162Y-65218351D01*
X162349128Y-65145537D01*
X162099500Y-65120951D01*
X160099500Y-65120951D01*
X159849872Y-65145537D01*
X159609838Y-65218351D01*
X159388621Y-65336594D01*
X159194722Y-65495722D01*
X159035594Y-65689621D01*
X158917351Y-65910838D01*
X158844537Y-66150872D01*
X158819951Y-66400500D01*
X136696000Y-66400500D01*
X136696000Y-59400500D01*
X158819951Y-59400500D01*
X158819951Y-62900500D01*
X158830126Y-63003810D01*
X158860261Y-63103150D01*
X158909196Y-63194702D01*
X158975052Y-63274948D01*
X159055298Y-63340804D01*
X159146850Y-63389739D01*
X159246190Y-63419874D01*
X159349500Y-63430049D01*
X162849500Y-63430049D01*
X162952810Y-63419874D01*
X163052150Y-63389739D01*
X163143702Y-63340804D01*
X163223275Y-63275500D01*
X163519951Y-63275500D01*
X163519951Y-65025500D01*
X163546939Y-65299514D01*
X163626866Y-65562998D01*
X163756660Y-65805826D01*
X163931334Y-66018666D01*
X164144174Y-66193340D01*
X164387002Y-66323134D01*
X164650486Y-66403061D01*
X164924500Y-66430049D01*
X166674500Y-66430049D01*
X166948514Y-66403061D01*
X167211998Y-66323134D01*
X167454826Y-66193340D01*
X167667666Y-66018666D01*
X167842340Y-65805826D01*
X167972134Y-65562998D01*
X168052061Y-65299514D01*
X168079049Y-65025500D01*
X168079049Y-63275500D01*
X168052061Y-63001486D01*
X167972134Y-62738002D01*
X167842340Y-62495174D01*
X167667666Y-62282334D01*
X167454826Y-62107660D01*
X167211998Y-61977866D01*
X166948514Y-61897939D01*
X166674500Y-61870951D01*
X164924500Y-61870951D01*
X164650486Y-61897939D01*
X164387002Y-61977866D01*
X164144174Y-62107660D01*
X163931334Y-62282334D01*
X163756660Y-62495174D01*
X163626866Y-62738002D01*
X163546939Y-63001486D01*
X163519951Y-63275500D01*
X163223275Y-63275500D01*
X163223948Y-63274948D01*
X163289804Y-63194702D01*
X163338739Y-63103150D01*
X163368874Y-63003810D01*
X163379049Y-62900500D01*
X163379049Y-59400500D01*
X163368874Y-59297190D01*
X163338739Y-59197850D01*
X163289804Y-59106298D01*
X163223948Y-59026052D01*
X163143702Y-58960196D01*
X163052150Y-58911261D01*
X162952810Y-58881126D01*
X162849500Y-58870951D01*
X159349500Y-58870951D01*
X159246190Y-58881126D01*
X159146850Y-58911261D01*
X159055298Y-58960196D01*
X158975052Y-59026052D01*
X158909196Y-59106298D01*
X158860261Y-59197850D01*
X158830126Y-59297190D01*
X158819951Y-59400500D01*
X136696000Y-59400500D01*
X136696000Y-56415002D01*
X136736459Y-56002372D01*
X136848451Y-55631438D01*
X137030359Y-55289320D01*
X137275251Y-54989054D01*
X137573806Y-54742068D01*
X137914644Y-54557777D01*
X138284787Y-54443198D01*
X138695786Y-54400000D01*
X166596998Y-54400000D01*
X167009628Y-54440459D01*
%TA.AperFunction,NonConductor*%
D14*
G36*
X167009628Y-54440459D02*
G01*
X167380562Y-54552451D01*
X167722680Y-54734359D01*
X168022946Y-54979251D01*
X168269932Y-55277806D01*
X168454223Y-55618644D01*
X168568802Y-55988787D01*
X168612001Y-56399796D01*
X168612000Y-73505998D01*
X168571541Y-73918627D01*
X168459551Y-74289558D01*
X168277642Y-74631679D01*
X168032752Y-74931944D01*
X167734194Y-75178932D01*
X167393356Y-75363223D01*
X167023208Y-75477803D01*
X166612214Y-75521000D01*
X138711002Y-75521000D01*
X138298373Y-75480541D01*
X137927442Y-75368551D01*
X137585321Y-75186642D01*
X137285056Y-74941752D01*
X137038068Y-74643194D01*
X136853777Y-74302356D01*
X136739197Y-73932208D01*
X136696000Y-73521214D01*
X136696000Y-69973302D01*
X143897500Y-69973302D01*
X143897500Y-70234698D01*
X143948496Y-70491072D01*
X144048528Y-70732570D01*
X144193752Y-70949913D01*
X144378587Y-71134748D01*
X144595930Y-71279972D01*
X144837428Y-71380004D01*
X145093802Y-71431000D01*
X145355198Y-71431000D01*
X145611572Y-71380004D01*
X145853070Y-71279972D01*
X146070413Y-71134748D01*
X146255248Y-70949913D01*
X146400472Y-70732570D01*
X146494500Y-70505567D01*
X146588528Y-70732570D01*
X146733752Y-70949913D01*
X146918587Y-71134748D01*
X147135930Y-71279972D01*
X147377428Y-71380004D01*
X147633802Y-71431000D01*
X147895198Y-71431000D01*
X148151572Y-71380004D01*
X148393070Y-71279972D01*
X148610413Y-71134748D01*
X148795248Y-70949913D01*
X148940472Y-70732570D01*
X149040504Y-70491072D01*
X149091500Y-70234698D01*
X149091500Y-69973302D01*
X149040504Y-69716928D01*
X148940472Y-69475430D01*
X148795248Y-69258087D01*
X148610413Y-69073252D01*
X148393070Y-68928028D01*
X148151572Y-68827996D01*
X147895198Y-68777000D01*
X147633802Y-68777000D01*
X147377428Y-68827996D01*
X147135930Y-68928028D01*
X146918587Y-69073252D01*
X146733752Y-69258087D01*
X146588528Y-69475430D01*
X146494500Y-69702433D01*
X146400472Y-69475430D01*
X146255248Y-69258087D01*
X146070413Y-69073252D01*
X145853070Y-68928028D01*
X145611572Y-68827996D01*
X145355198Y-68777000D01*
X145093802Y-68777000D01*
X144837428Y-68827996D01*
X144595930Y-68928028D01*
X144378587Y-69073252D01*
X144193752Y-69258087D01*
X144048528Y-69475430D01*
X143948496Y-69716928D01*
X143897500Y-69973302D01*
X136696000Y-69973302D01*
X136696000Y-66400500D01*
X158819951Y-66400500D01*
X158819951Y-67900500D01*
X158844537Y-68150128D01*
X158917351Y-68390162D01*
X159035594Y-68611379D01*
X159194722Y-68805278D01*
X159388621Y-68964406D01*
X159609838Y-69082649D01*
X159849872Y-69155463D01*
X160099500Y-69180049D01*
X162099500Y-69180049D01*
X162349128Y-69155463D01*
X162589162Y-69082649D01*
X162810379Y-68964406D01*
X163004278Y-68805278D01*
X163163406Y-68611379D01*
X163281649Y-68390162D01*
X163354463Y-68150128D01*
X163379049Y-67900500D01*
X163379049Y-66400500D01*
X163354463Y-66150872D01*
X163281649Y-65910838D01*
X163163406Y-65689621D01*
X163004278Y-65495722D01*
X162810379Y-65336594D01*
X162589162Y-65218351D01*
X162349128Y-65145537D01*
X162099500Y-65120951D01*
X160099500Y-65120951D01*
X159849872Y-65145537D01*
X159609838Y-65218351D01*
X159388621Y-65336594D01*
X159194722Y-65495722D01*
X159035594Y-65689621D01*
X158917351Y-65910838D01*
X158844537Y-66150872D01*
X158819951Y-66400500D01*
X136696000Y-66400500D01*
X136696000Y-59400500D01*
X158819951Y-59400500D01*
X158819951Y-62900500D01*
X158830126Y-63003810D01*
X158860261Y-63103150D01*
X158909196Y-63194702D01*
X158975052Y-63274948D01*
X159055298Y-63340804D01*
X159146850Y-63389739D01*
X159246190Y-63419874D01*
X159349500Y-63430049D01*
X162849500Y-63430049D01*
X162952810Y-63419874D01*
X163052150Y-63389739D01*
X163143702Y-63340804D01*
X163223275Y-63275500D01*
X163519951Y-63275500D01*
X163519951Y-65025500D01*
X163546939Y-65299514D01*
X163626866Y-65562998D01*
X163756660Y-65805826D01*
X163931334Y-66018666D01*
X164144174Y-66193340D01*
X164387002Y-66323134D01*
X164650486Y-66403061D01*
X164924500Y-66430049D01*
X166674500Y-66430049D01*
X166948514Y-66403061D01*
X167211998Y-66323134D01*
X167454826Y-66193340D01*
X167667666Y-66018666D01*
X167842340Y-65805826D01*
X167972134Y-65562998D01*
X168052061Y-65299514D01*
X168079049Y-65025500D01*
X168079049Y-63275500D01*
X168052061Y-63001486D01*
X167972134Y-62738002D01*
X167842340Y-62495174D01*
X167667666Y-62282334D01*
X167454826Y-62107660D01*
X167211998Y-61977866D01*
X166948514Y-61897939D01*
X166674500Y-61870951D01*
X164924500Y-61870951D01*
X164650486Y-61897939D01*
X164387002Y-61977866D01*
X164144174Y-62107660D01*
X163931334Y-62282334D01*
X163756660Y-62495174D01*
X163626866Y-62738002D01*
X163546939Y-63001486D01*
X163519951Y-63275500D01*
X163223275Y-63275500D01*
X163223948Y-63274948D01*
X163289804Y-63194702D01*
X163338739Y-63103150D01*
X163368874Y-63003810D01*
X163379049Y-62900500D01*
X163379049Y-59400500D01*
X163368874Y-59297190D01*
X163338739Y-59197850D01*
X163289804Y-59106298D01*
X163223948Y-59026052D01*
X163143702Y-58960196D01*
X163052150Y-58911261D01*
X162952810Y-58881126D01*
X162849500Y-58870951D01*
X159349500Y-58870951D01*
X159246190Y-58881126D01*
X159146850Y-58911261D01*
X159055298Y-58960196D01*
X158975052Y-59026052D01*
X158909196Y-59106298D01*
X158860261Y-59197850D01*
X158830126Y-59297190D01*
X158819951Y-59400500D01*
X136696000Y-59400500D01*
X136696000Y-56415002D01*
X136736459Y-56002372D01*
X136848451Y-55631438D01*
X137030359Y-55289320D01*
X137275251Y-54989054D01*
X137573806Y-54742068D01*
X137914644Y-54557777D01*
X138284787Y-54443198D01*
X138695786Y-54400000D01*
X166596998Y-54400000D01*
X167009628Y-54440459D01*
G37*
%TD.AperFunction*%
M02*
