%TF.GenerationSoftware,KiCad,Pcbnew,(5.1.10)-1*%
%TF.CreationDate,2021-08-31T23:06:00+03:00*%
%TF.ProjectId,Multivibrator,4d756c74-6976-4696-9272-61746f722e6b,rev?*%
%TF.SameCoordinates,Original*%
%TF.FileFunction,Paste,Top*%
%TF.FilePolarity,Positive*%
%FSLAX46Y46*%
G04 Gerber Fmt 4.6, Leading zero omitted, Abs format (unit mm)*
G04 Created by KiCad (PCBNEW (5.1.10)-1) date 2021-08-31 23:06:00*
%MOMM*%
%LPD*%
G01*
G04 APERTURE LIST*
G04 APERTURE END LIST*
%TO.C,R4*%
G36*
G01*
X151441999Y-58820000D02*
X152342001Y-58820000D01*
G75*
G02*
X152592000Y-59069999I0J-249999D01*
G01*
X152592000Y-59595001D01*
G75*
G02*
X152342001Y-59845000I-249999J0D01*
G01*
X151441999Y-59845000D01*
G75*
G02*
X151192000Y-59595001I0J249999D01*
G01*
X151192000Y-59069999D01*
G75*
G02*
X151441999Y-58820000I249999J0D01*
G01*
G37*
G36*
G01*
X151441999Y-56995000D02*
X152342001Y-56995000D01*
G75*
G02*
X152592000Y-57244999I0J-249999D01*
G01*
X152592000Y-57770001D01*
G75*
G02*
X152342001Y-58020000I-249999J0D01*
G01*
X151441999Y-58020000D01*
G75*
G02*
X151192000Y-57770001I0J249999D01*
G01*
X151192000Y-57244999D01*
G75*
G02*
X151441999Y-56995000I249999J0D01*
G01*
G37*
%TD*%
%TO.C,R3*%
G36*
G01*
X146531331Y-58820000D02*
X147431333Y-58820000D01*
G75*
G02*
X147681332Y-59069999I0J-249999D01*
G01*
X147681332Y-59595001D01*
G75*
G02*
X147431333Y-59845000I-249999J0D01*
G01*
X146531331Y-59845000D01*
G75*
G02*
X146281332Y-59595001I0J249999D01*
G01*
X146281332Y-59069999D01*
G75*
G02*
X146531331Y-58820000I249999J0D01*
G01*
G37*
G36*
G01*
X146531331Y-56995000D02*
X147431333Y-56995000D01*
G75*
G02*
X147681332Y-57244999I0J-249999D01*
G01*
X147681332Y-57770001D01*
G75*
G02*
X147431333Y-58020000I-249999J0D01*
G01*
X146531331Y-58020000D01*
G75*
G02*
X146281332Y-57770001I0J249999D01*
G01*
X146281332Y-57244999D01*
G75*
G02*
X146531331Y-56995000I249999J0D01*
G01*
G37*
%TD*%
%TO.C,R2*%
G36*
G01*
X141620665Y-58820000D02*
X142520667Y-58820000D01*
G75*
G02*
X142770666Y-59069999I0J-249999D01*
G01*
X142770666Y-59595001D01*
G75*
G02*
X142520667Y-59845000I-249999J0D01*
G01*
X141620665Y-59845000D01*
G75*
G02*
X141370666Y-59595001I0J249999D01*
G01*
X141370666Y-59069999D01*
G75*
G02*
X141620665Y-58820000I249999J0D01*
G01*
G37*
G36*
G01*
X141620665Y-56995000D02*
X142520667Y-56995000D01*
G75*
G02*
X142770666Y-57244999I0J-249999D01*
G01*
X142770666Y-57770001D01*
G75*
G02*
X142520667Y-58020000I-249999J0D01*
G01*
X141620665Y-58020000D01*
G75*
G02*
X141370666Y-57770001I0J249999D01*
G01*
X141370666Y-57244999D01*
G75*
G02*
X141620665Y-56995000I249999J0D01*
G01*
G37*
%TD*%
%TO.C,R1*%
G36*
G01*
X136709999Y-58820000D02*
X137610001Y-58820000D01*
G75*
G02*
X137860000Y-59069999I0J-249999D01*
G01*
X137860000Y-59595001D01*
G75*
G02*
X137610001Y-59845000I-249999J0D01*
G01*
X136709999Y-59845000D01*
G75*
G02*
X136460000Y-59595001I0J249999D01*
G01*
X136460000Y-59069999D01*
G75*
G02*
X136709999Y-58820000I249999J0D01*
G01*
G37*
G36*
G01*
X136709999Y-56995000D02*
X137610001Y-56995000D01*
G75*
G02*
X137860000Y-57244999I0J-249999D01*
G01*
X137860000Y-57770001D01*
G75*
G02*
X137610001Y-58020000I-249999J0D01*
G01*
X136709999Y-58020000D01*
G75*
G02*
X136460000Y-57770001I0J249999D01*
G01*
X136460000Y-57244999D01*
G75*
G02*
X136709999Y-56995000I249999J0D01*
G01*
G37*
%TD*%
%TO.C,D2*%
G36*
G01*
X151992500Y-55567000D02*
X151791500Y-55567000D01*
G75*
G02*
X151712000Y-55487500I0J79500D01*
G01*
X151712000Y-55328500D01*
G75*
G02*
X151791500Y-55249000I79500J0D01*
G01*
X151992500Y-55249000D01*
G75*
G02*
X152072000Y-55328500I0J-79500D01*
G01*
X152072000Y-55487500D01*
G75*
G02*
X151992500Y-55567000I-79500J0D01*
G01*
G37*
G36*
G01*
X151992500Y-56257000D02*
X151791500Y-56257000D01*
G75*
G02*
X151712000Y-56177500I0J79500D01*
G01*
X151712000Y-56018500D01*
G75*
G02*
X151791500Y-55939000I79500J0D01*
G01*
X151992500Y-55939000D01*
G75*
G02*
X152072000Y-56018500I0J-79500D01*
G01*
X152072000Y-56177500D01*
G75*
G02*
X151992500Y-56257000I-79500J0D01*
G01*
G37*
%TD*%
%TO.C,D1*%
G36*
G01*
X137260500Y-55567000D02*
X137059500Y-55567000D01*
G75*
G02*
X136980000Y-55487500I0J79500D01*
G01*
X136980000Y-55328500D01*
G75*
G02*
X137059500Y-55249000I79500J0D01*
G01*
X137260500Y-55249000D01*
G75*
G02*
X137340000Y-55328500I0J-79500D01*
G01*
X137340000Y-55487500D01*
G75*
G02*
X137260500Y-55567000I-79500J0D01*
G01*
G37*
G36*
G01*
X137260500Y-56257000D02*
X137059500Y-56257000D01*
G75*
G02*
X136980000Y-56177500I0J79500D01*
G01*
X136980000Y-56018500D01*
G75*
G02*
X137059500Y-55939000I79500J0D01*
G01*
X137260500Y-55939000D01*
G75*
G02*
X137340000Y-56018500I0J-79500D01*
G01*
X137340000Y-56177500D01*
G75*
G02*
X137260500Y-56257000I-79500J0D01*
G01*
G37*
%TD*%
M02*
