%TF.GenerationSoftware,KiCad,Pcbnew,(5.1.10)-1*%
%TF.CreationDate,2021-08-31T23:06:00+03:00*%
%TF.ProjectId,Multivibrator,4d756c74-6976-4696-9272-61746f722e6b,rev?*%
%TF.SameCoordinates,Original*%
%TF.FileFunction,Copper,L2,Bot*%
%TF.FilePolarity,Positive*%
%FSLAX46Y46*%
G04 Gerber Fmt 4.6, Leading zero omitted, Abs format (unit mm)*
G04 Created by KiCad (PCBNEW (5.1.10)-1) date 2021-08-31 23:06:00*
%MOMM*%
%LPD*%
G01*
G04 APERTURE LIST*
%TA.AperFunction,ComponentPad*%
%ADD10R,1.300000X1.300000*%
%TD*%
%TA.AperFunction,ComponentPad*%
%ADD11C,1.300000*%
%TD*%
%TA.AperFunction,ComponentPad*%
%ADD12O,1.870000X1.170000*%
%TD*%
%TA.AperFunction,ComponentPad*%
%ADD13C,1.600000*%
%TD*%
%TA.AperFunction,ComponentPad*%
%ADD14R,1.600000X1.600000*%
%TD*%
%TA.AperFunction,Conductor*%
%ADD15C,0.250000*%
%TD*%
%TA.AperFunction,Conductor*%
%ADD16C,0.254000*%
%TD*%
%TA.AperFunction,Conductor*%
%ADD17C,0.100000*%
%TD*%
G04 APERTURE END LIST*
D10*
%TO.P,Q2,1*%
%TO.N,Net-(C2-Pad1)*%
X150876000Y-72390000D03*
D11*
%TO.P,Q2,3*%
%TO.N,GND*%
X150876000Y-74930000D03*
%TO.P,Q2,2*%
%TO.N,Net-(C1-Pad2)*%
X152146000Y-73660000D03*
%TD*%
D10*
%TO.P,Q1,1*%
%TO.N,Net-(C1-Pad1)*%
X137160000Y-72390000D03*
D11*
%TO.P,Q1,3*%
%TO.N,GND*%
X137160000Y-74930000D03*
%TO.P,Q1,2*%
%TO.N,Net-(C2-Pad2)*%
X138430000Y-73660000D03*
%TD*%
D12*
%TO.P,J1,2*%
%TO.N,GND*%
X158750000Y-65901000D03*
%TO.P,J1,1*%
%TO.N,+5V*%
%TA.AperFunction,ComponentPad*%
G36*
G01*
X158064999Y-63816000D02*
X159435001Y-63816000D01*
G75*
G02*
X159685000Y-64065999I0J-249999D01*
G01*
X159685000Y-64736001D01*
G75*
G02*
X159435001Y-64986000I-249999J0D01*
G01*
X158064999Y-64986000D01*
G75*
G02*
X157815000Y-64736001I0J249999D01*
G01*
X157815000Y-64065999D01*
G75*
G02*
X158064999Y-63816000I249999J0D01*
G01*
G37*
%TD.AperFunction*%
%TD*%
D13*
%TO.P,C2,2*%
%TO.N,Net-(C2-Pad2)*%
X148503000Y-65151000D03*
D14*
%TO.P,C2,1*%
%TO.N,Net-(C2-Pad1)*%
X151003000Y-65151000D03*
%TD*%
D13*
%TO.P,C1,2*%
%TO.N,Net-(C1-Pad2)*%
X139787000Y-65151000D03*
D14*
%TO.P,C1,1*%
%TO.N,Net-(C1-Pad1)*%
X137287000Y-65151000D03*
%TD*%
D15*
%TO.N,Net-(C1-Pad2)*%
X152146000Y-70612000D02*
X152146000Y-73660000D01*
X148209000Y-69469000D02*
X151003000Y-69469000D01*
X151003000Y-69469000D02*
X152146000Y-70612000D01*
X144105000Y-69469000D02*
X148209000Y-69469000D01*
X139700000Y-65278000D02*
X144018000Y-69596000D01*
%TD*%
D16*
%TO.N,GND*%
X160384545Y-54038909D02*
X160735208Y-54144780D01*
X161058625Y-54316744D01*
X161342484Y-54548254D01*
X161575965Y-54830486D01*
X161750183Y-55152695D01*
X161858502Y-55502614D01*
X161900001Y-55897452D01*
X161900000Y-74897721D01*
X161861091Y-75294545D01*
X161755220Y-75645206D01*
X161583257Y-75968623D01*
X161351748Y-76252482D01*
X161069514Y-76485965D01*
X160747304Y-76660184D01*
X160397385Y-76768502D01*
X160002557Y-76810000D01*
X134652279Y-76810000D01*
X134255455Y-76771091D01*
X133904794Y-76665220D01*
X133581377Y-76493257D01*
X133297518Y-76261748D01*
X133064035Y-75979514D01*
X132975368Y-75815527D01*
X136454078Y-75815527D01*
X136507466Y-76044201D01*
X136737374Y-76150095D01*
X136983524Y-76209102D01*
X137236455Y-76218952D01*
X137486449Y-76179270D01*
X137723896Y-76091578D01*
X137812534Y-76044201D01*
X137865922Y-75815527D01*
X150170078Y-75815527D01*
X150223466Y-76044201D01*
X150453374Y-76150095D01*
X150699524Y-76209102D01*
X150952455Y-76218952D01*
X151202449Y-76179270D01*
X151439896Y-76091578D01*
X151528534Y-76044201D01*
X151581922Y-75815527D01*
X150876000Y-75109605D01*
X150170078Y-75815527D01*
X137865922Y-75815527D01*
X137160000Y-75109605D01*
X136454078Y-75815527D01*
X132975368Y-75815527D01*
X132889816Y-75657304D01*
X132781498Y-75307385D01*
X132749870Y-75006455D01*
X135871048Y-75006455D01*
X135910730Y-75256449D01*
X135998422Y-75493896D01*
X136045799Y-75582534D01*
X136274473Y-75635922D01*
X136980395Y-74930000D01*
X136274473Y-74224078D01*
X136045799Y-74277466D01*
X135939905Y-74507374D01*
X135880898Y-74753524D01*
X135871048Y-75006455D01*
X132749870Y-75006455D01*
X132740000Y-74912557D01*
X132740000Y-71740000D01*
X135871928Y-71740000D01*
X135871928Y-73040000D01*
X135884188Y-73164482D01*
X135920498Y-73284180D01*
X135979463Y-73394494D01*
X136058815Y-73491185D01*
X136155506Y-73570537D01*
X136265820Y-73629502D01*
X136385518Y-73665812D01*
X136510000Y-73678072D01*
X136850296Y-73678072D01*
X136833551Y-73680730D01*
X136596104Y-73768422D01*
X136507466Y-73815799D01*
X136454078Y-74044473D01*
X137160000Y-74750395D01*
X137174143Y-74736253D01*
X137353748Y-74915858D01*
X137339605Y-74930000D01*
X138045527Y-75635922D01*
X138274201Y-75582534D01*
X138380095Y-75352626D01*
X138439102Y-75106476D01*
X138442996Y-75006455D01*
X149587048Y-75006455D01*
X149626730Y-75256449D01*
X149714422Y-75493896D01*
X149761799Y-75582534D01*
X149990473Y-75635922D01*
X150696395Y-74930000D01*
X149990473Y-74224078D01*
X149761799Y-74277466D01*
X149655905Y-74507374D01*
X149596898Y-74753524D01*
X149587048Y-75006455D01*
X138442996Y-75006455D01*
X138445390Y-74945000D01*
X138556561Y-74945000D01*
X138804821Y-74895619D01*
X139038676Y-74798753D01*
X139249140Y-74658125D01*
X139428125Y-74479140D01*
X139568753Y-74268676D01*
X139665619Y-74034821D01*
X139715000Y-73786561D01*
X139715000Y-73533439D01*
X139665619Y-73285179D01*
X139568753Y-73051324D01*
X139428125Y-72840860D01*
X139249140Y-72661875D01*
X139038676Y-72521247D01*
X138804821Y-72424381D01*
X138556561Y-72375000D01*
X138448072Y-72375000D01*
X138448072Y-71740000D01*
X138435812Y-71615518D01*
X138399502Y-71495820D01*
X138340537Y-71385506D01*
X138261185Y-71288815D01*
X138164494Y-71209463D01*
X138054180Y-71150498D01*
X137934482Y-71114188D01*
X137810000Y-71101928D01*
X136510000Y-71101928D01*
X136385518Y-71114188D01*
X136265820Y-71150498D01*
X136155506Y-71209463D01*
X136058815Y-71288815D01*
X135979463Y-71385506D01*
X135920498Y-71495820D01*
X135884188Y-71615518D01*
X135871928Y-71740000D01*
X132740000Y-71740000D01*
X132740000Y-64351000D01*
X135848928Y-64351000D01*
X135848928Y-65951000D01*
X135861188Y-66075482D01*
X135897498Y-66195180D01*
X135956463Y-66305494D01*
X136035815Y-66402185D01*
X136132506Y-66481537D01*
X136242820Y-66540502D01*
X136362518Y-66576812D01*
X136487000Y-66589072D01*
X138087000Y-66589072D01*
X138211482Y-66576812D01*
X138331180Y-66540502D01*
X138441494Y-66481537D01*
X138538185Y-66402185D01*
X138617537Y-66305494D01*
X138676502Y-66195180D01*
X138705661Y-66099057D01*
X138872241Y-66265637D01*
X139107273Y-66422680D01*
X139368426Y-66530853D01*
X139645665Y-66586000D01*
X139928335Y-66586000D01*
X139932392Y-66585193D01*
X143506997Y-70159799D01*
X143593723Y-70230973D01*
X143725753Y-70301546D01*
X143869013Y-70345002D01*
X144017999Y-70359676D01*
X144166985Y-70345002D01*
X144310246Y-70301546D01*
X144442275Y-70230973D01*
X144444679Y-70229000D01*
X150688199Y-70229000D01*
X151386000Y-70926802D01*
X151386000Y-71101928D01*
X150226000Y-71101928D01*
X150101518Y-71114188D01*
X149981820Y-71150498D01*
X149871506Y-71209463D01*
X149774815Y-71288815D01*
X149695463Y-71385506D01*
X149636498Y-71495820D01*
X149600188Y-71615518D01*
X149587928Y-71740000D01*
X149587928Y-73040000D01*
X149600188Y-73164482D01*
X149636498Y-73284180D01*
X149695463Y-73394494D01*
X149774815Y-73491185D01*
X149871506Y-73570537D01*
X149981820Y-73629502D01*
X150101518Y-73665812D01*
X150226000Y-73678072D01*
X150566296Y-73678072D01*
X150549551Y-73680730D01*
X150312104Y-73768422D01*
X150223466Y-73815799D01*
X150170078Y-74044473D01*
X150876000Y-74750395D01*
X150890143Y-74736253D01*
X151069748Y-74915858D01*
X151055605Y-74930000D01*
X151761527Y-75635922D01*
X151990201Y-75582534D01*
X152096095Y-75352626D01*
X152155102Y-75106476D01*
X152161390Y-74945000D01*
X152272561Y-74945000D01*
X152520821Y-74895619D01*
X152754676Y-74798753D01*
X152965140Y-74658125D01*
X153144125Y-74479140D01*
X153284753Y-74268676D01*
X153381619Y-74034821D01*
X153431000Y-73786561D01*
X153431000Y-73533439D01*
X153381619Y-73285179D01*
X153284753Y-73051324D01*
X153144125Y-72840860D01*
X152965140Y-72661875D01*
X152906000Y-72622359D01*
X152906000Y-70649322D01*
X152909676Y-70611999D01*
X152906000Y-70574676D01*
X152906000Y-70574667D01*
X152895003Y-70463014D01*
X152851546Y-70319753D01*
X152841814Y-70301546D01*
X152780974Y-70187723D01*
X152709799Y-70100997D01*
X152686001Y-70071999D01*
X152657004Y-70048202D01*
X151566804Y-68958002D01*
X151543001Y-68928999D01*
X151427276Y-68834026D01*
X151295247Y-68763454D01*
X151151986Y-68719997D01*
X151040333Y-68709000D01*
X151040322Y-68709000D01*
X151003000Y-68705324D01*
X150965678Y-68709000D01*
X144205802Y-68709000D01*
X141137424Y-65640623D01*
X141166853Y-65569574D01*
X141222000Y-65292335D01*
X141222000Y-65009665D01*
X147068000Y-65009665D01*
X147068000Y-65292335D01*
X147123147Y-65569574D01*
X147231320Y-65830727D01*
X147388363Y-66065759D01*
X147588241Y-66265637D01*
X147823273Y-66422680D01*
X148084426Y-66530853D01*
X148361665Y-66586000D01*
X148644335Y-66586000D01*
X148921574Y-66530853D01*
X149182727Y-66422680D01*
X149417759Y-66265637D01*
X149584339Y-66099057D01*
X149613498Y-66195180D01*
X149672463Y-66305494D01*
X149751815Y-66402185D01*
X149848506Y-66481537D01*
X149958820Y-66540502D01*
X150078518Y-66576812D01*
X150203000Y-66589072D01*
X151803000Y-66589072D01*
X151927482Y-66576812D01*
X152047180Y-66540502D01*
X152157494Y-66481537D01*
X152254185Y-66402185D01*
X152333537Y-66305494D01*
X152381239Y-66216250D01*
X157221434Y-66216250D01*
X157224265Y-66250541D01*
X157315048Y-66473199D01*
X157447526Y-66673868D01*
X157616607Y-66844836D01*
X157815793Y-66979533D01*
X158037430Y-67072782D01*
X158273000Y-67121000D01*
X158623000Y-67121000D01*
X158623000Y-66028000D01*
X158877000Y-66028000D01*
X158877000Y-67121000D01*
X159227000Y-67121000D01*
X159462570Y-67072782D01*
X159684207Y-66979533D01*
X159883393Y-66844836D01*
X160052474Y-66673868D01*
X160184952Y-66473199D01*
X160275735Y-66250541D01*
X160278566Y-66216250D01*
X160153624Y-66028000D01*
X158877000Y-66028000D01*
X158623000Y-66028000D01*
X157346376Y-66028000D01*
X157221434Y-66216250D01*
X152381239Y-66216250D01*
X152392502Y-66195180D01*
X152428812Y-66075482D01*
X152441072Y-65951000D01*
X152441072Y-64351000D01*
X152428812Y-64226518D01*
X152392502Y-64106820D01*
X152370683Y-64065999D01*
X157176928Y-64065999D01*
X157176928Y-64736001D01*
X157193992Y-64909255D01*
X157244528Y-65075851D01*
X157326595Y-65229387D01*
X157356568Y-65265909D01*
X157315048Y-65328801D01*
X157224265Y-65551459D01*
X157221434Y-65585750D01*
X157346376Y-65774000D01*
X158623000Y-65774000D01*
X158623000Y-65754000D01*
X158877000Y-65754000D01*
X158877000Y-65774000D01*
X160153624Y-65774000D01*
X160278566Y-65585750D01*
X160275735Y-65551459D01*
X160184952Y-65328801D01*
X160143432Y-65265909D01*
X160173405Y-65229387D01*
X160255472Y-65075851D01*
X160306008Y-64909255D01*
X160323072Y-64736001D01*
X160323072Y-64065999D01*
X160306008Y-63892745D01*
X160255472Y-63726149D01*
X160173405Y-63572613D01*
X160062962Y-63438038D01*
X159928387Y-63327595D01*
X159774851Y-63245528D01*
X159608255Y-63194992D01*
X159435001Y-63177928D01*
X158064999Y-63177928D01*
X157891745Y-63194992D01*
X157725149Y-63245528D01*
X157571613Y-63327595D01*
X157437038Y-63438038D01*
X157326595Y-63572613D01*
X157244528Y-63726149D01*
X157193992Y-63892745D01*
X157176928Y-64065999D01*
X152370683Y-64065999D01*
X152333537Y-63996506D01*
X152254185Y-63899815D01*
X152157494Y-63820463D01*
X152047180Y-63761498D01*
X151927482Y-63725188D01*
X151803000Y-63712928D01*
X150203000Y-63712928D01*
X150078518Y-63725188D01*
X149958820Y-63761498D01*
X149848506Y-63820463D01*
X149751815Y-63899815D01*
X149672463Y-63996506D01*
X149613498Y-64106820D01*
X149584339Y-64202943D01*
X149417759Y-64036363D01*
X149182727Y-63879320D01*
X148921574Y-63771147D01*
X148644335Y-63716000D01*
X148361665Y-63716000D01*
X148084426Y-63771147D01*
X147823273Y-63879320D01*
X147588241Y-64036363D01*
X147388363Y-64236241D01*
X147231320Y-64471273D01*
X147123147Y-64732426D01*
X147068000Y-65009665D01*
X141222000Y-65009665D01*
X141166853Y-64732426D01*
X141058680Y-64471273D01*
X140901637Y-64236241D01*
X140701759Y-64036363D01*
X140466727Y-63879320D01*
X140205574Y-63771147D01*
X139928335Y-63716000D01*
X139645665Y-63716000D01*
X139368426Y-63771147D01*
X139107273Y-63879320D01*
X138872241Y-64036363D01*
X138705661Y-64202943D01*
X138676502Y-64106820D01*
X138617537Y-63996506D01*
X138538185Y-63899815D01*
X138441494Y-63820463D01*
X138331180Y-63761498D01*
X138211482Y-63725188D01*
X138087000Y-63712928D01*
X136487000Y-63712928D01*
X136362518Y-63725188D01*
X136242820Y-63761498D01*
X136132506Y-63820463D01*
X136035815Y-63899815D01*
X135956463Y-63996506D01*
X135897498Y-64106820D01*
X135861188Y-64226518D01*
X135848928Y-64351000D01*
X132740000Y-64351000D01*
X132740000Y-55912279D01*
X132778909Y-55515455D01*
X132884780Y-55164792D01*
X133056744Y-54841375D01*
X133288254Y-54557516D01*
X133570486Y-54324035D01*
X133892695Y-54149817D01*
X134242614Y-54041498D01*
X134637443Y-54000000D01*
X159987721Y-54000000D01*
X160384545Y-54038909D01*
%TA.AperFunction,Conductor*%
D17*
G36*
X160384545Y-54038909D02*
G01*
X160735208Y-54144780D01*
X161058625Y-54316744D01*
X161342484Y-54548254D01*
X161575965Y-54830486D01*
X161750183Y-55152695D01*
X161858502Y-55502614D01*
X161900001Y-55897452D01*
X161900000Y-74897721D01*
X161861091Y-75294545D01*
X161755220Y-75645206D01*
X161583257Y-75968623D01*
X161351748Y-76252482D01*
X161069514Y-76485965D01*
X160747304Y-76660184D01*
X160397385Y-76768502D01*
X160002557Y-76810000D01*
X134652279Y-76810000D01*
X134255455Y-76771091D01*
X133904794Y-76665220D01*
X133581377Y-76493257D01*
X133297518Y-76261748D01*
X133064035Y-75979514D01*
X132975368Y-75815527D01*
X136454078Y-75815527D01*
X136507466Y-76044201D01*
X136737374Y-76150095D01*
X136983524Y-76209102D01*
X137236455Y-76218952D01*
X137486449Y-76179270D01*
X137723896Y-76091578D01*
X137812534Y-76044201D01*
X137865922Y-75815527D01*
X150170078Y-75815527D01*
X150223466Y-76044201D01*
X150453374Y-76150095D01*
X150699524Y-76209102D01*
X150952455Y-76218952D01*
X151202449Y-76179270D01*
X151439896Y-76091578D01*
X151528534Y-76044201D01*
X151581922Y-75815527D01*
X150876000Y-75109605D01*
X150170078Y-75815527D01*
X137865922Y-75815527D01*
X137160000Y-75109605D01*
X136454078Y-75815527D01*
X132975368Y-75815527D01*
X132889816Y-75657304D01*
X132781498Y-75307385D01*
X132749870Y-75006455D01*
X135871048Y-75006455D01*
X135910730Y-75256449D01*
X135998422Y-75493896D01*
X136045799Y-75582534D01*
X136274473Y-75635922D01*
X136980395Y-74930000D01*
X136274473Y-74224078D01*
X136045799Y-74277466D01*
X135939905Y-74507374D01*
X135880898Y-74753524D01*
X135871048Y-75006455D01*
X132749870Y-75006455D01*
X132740000Y-74912557D01*
X132740000Y-71740000D01*
X135871928Y-71740000D01*
X135871928Y-73040000D01*
X135884188Y-73164482D01*
X135920498Y-73284180D01*
X135979463Y-73394494D01*
X136058815Y-73491185D01*
X136155506Y-73570537D01*
X136265820Y-73629502D01*
X136385518Y-73665812D01*
X136510000Y-73678072D01*
X136850296Y-73678072D01*
X136833551Y-73680730D01*
X136596104Y-73768422D01*
X136507466Y-73815799D01*
X136454078Y-74044473D01*
X137160000Y-74750395D01*
X137174143Y-74736253D01*
X137353748Y-74915858D01*
X137339605Y-74930000D01*
X138045527Y-75635922D01*
X138274201Y-75582534D01*
X138380095Y-75352626D01*
X138439102Y-75106476D01*
X138442996Y-75006455D01*
X149587048Y-75006455D01*
X149626730Y-75256449D01*
X149714422Y-75493896D01*
X149761799Y-75582534D01*
X149990473Y-75635922D01*
X150696395Y-74930000D01*
X149990473Y-74224078D01*
X149761799Y-74277466D01*
X149655905Y-74507374D01*
X149596898Y-74753524D01*
X149587048Y-75006455D01*
X138442996Y-75006455D01*
X138445390Y-74945000D01*
X138556561Y-74945000D01*
X138804821Y-74895619D01*
X139038676Y-74798753D01*
X139249140Y-74658125D01*
X139428125Y-74479140D01*
X139568753Y-74268676D01*
X139665619Y-74034821D01*
X139715000Y-73786561D01*
X139715000Y-73533439D01*
X139665619Y-73285179D01*
X139568753Y-73051324D01*
X139428125Y-72840860D01*
X139249140Y-72661875D01*
X139038676Y-72521247D01*
X138804821Y-72424381D01*
X138556561Y-72375000D01*
X138448072Y-72375000D01*
X138448072Y-71740000D01*
X138435812Y-71615518D01*
X138399502Y-71495820D01*
X138340537Y-71385506D01*
X138261185Y-71288815D01*
X138164494Y-71209463D01*
X138054180Y-71150498D01*
X137934482Y-71114188D01*
X137810000Y-71101928D01*
X136510000Y-71101928D01*
X136385518Y-71114188D01*
X136265820Y-71150498D01*
X136155506Y-71209463D01*
X136058815Y-71288815D01*
X135979463Y-71385506D01*
X135920498Y-71495820D01*
X135884188Y-71615518D01*
X135871928Y-71740000D01*
X132740000Y-71740000D01*
X132740000Y-64351000D01*
X135848928Y-64351000D01*
X135848928Y-65951000D01*
X135861188Y-66075482D01*
X135897498Y-66195180D01*
X135956463Y-66305494D01*
X136035815Y-66402185D01*
X136132506Y-66481537D01*
X136242820Y-66540502D01*
X136362518Y-66576812D01*
X136487000Y-66589072D01*
X138087000Y-66589072D01*
X138211482Y-66576812D01*
X138331180Y-66540502D01*
X138441494Y-66481537D01*
X138538185Y-66402185D01*
X138617537Y-66305494D01*
X138676502Y-66195180D01*
X138705661Y-66099057D01*
X138872241Y-66265637D01*
X139107273Y-66422680D01*
X139368426Y-66530853D01*
X139645665Y-66586000D01*
X139928335Y-66586000D01*
X139932392Y-66585193D01*
X143506997Y-70159799D01*
X143593723Y-70230973D01*
X143725753Y-70301546D01*
X143869013Y-70345002D01*
X144017999Y-70359676D01*
X144166985Y-70345002D01*
X144310246Y-70301546D01*
X144442275Y-70230973D01*
X144444679Y-70229000D01*
X150688199Y-70229000D01*
X151386000Y-70926802D01*
X151386000Y-71101928D01*
X150226000Y-71101928D01*
X150101518Y-71114188D01*
X149981820Y-71150498D01*
X149871506Y-71209463D01*
X149774815Y-71288815D01*
X149695463Y-71385506D01*
X149636498Y-71495820D01*
X149600188Y-71615518D01*
X149587928Y-71740000D01*
X149587928Y-73040000D01*
X149600188Y-73164482D01*
X149636498Y-73284180D01*
X149695463Y-73394494D01*
X149774815Y-73491185D01*
X149871506Y-73570537D01*
X149981820Y-73629502D01*
X150101518Y-73665812D01*
X150226000Y-73678072D01*
X150566296Y-73678072D01*
X150549551Y-73680730D01*
X150312104Y-73768422D01*
X150223466Y-73815799D01*
X150170078Y-74044473D01*
X150876000Y-74750395D01*
X150890143Y-74736253D01*
X151069748Y-74915858D01*
X151055605Y-74930000D01*
X151761527Y-75635922D01*
X151990201Y-75582534D01*
X152096095Y-75352626D01*
X152155102Y-75106476D01*
X152161390Y-74945000D01*
X152272561Y-74945000D01*
X152520821Y-74895619D01*
X152754676Y-74798753D01*
X152965140Y-74658125D01*
X153144125Y-74479140D01*
X153284753Y-74268676D01*
X153381619Y-74034821D01*
X153431000Y-73786561D01*
X153431000Y-73533439D01*
X153381619Y-73285179D01*
X153284753Y-73051324D01*
X153144125Y-72840860D01*
X152965140Y-72661875D01*
X152906000Y-72622359D01*
X152906000Y-70649322D01*
X152909676Y-70611999D01*
X152906000Y-70574676D01*
X152906000Y-70574667D01*
X152895003Y-70463014D01*
X152851546Y-70319753D01*
X152841814Y-70301546D01*
X152780974Y-70187723D01*
X152709799Y-70100997D01*
X152686001Y-70071999D01*
X152657004Y-70048202D01*
X151566804Y-68958002D01*
X151543001Y-68928999D01*
X151427276Y-68834026D01*
X151295247Y-68763454D01*
X151151986Y-68719997D01*
X151040333Y-68709000D01*
X151040322Y-68709000D01*
X151003000Y-68705324D01*
X150965678Y-68709000D01*
X144205802Y-68709000D01*
X141137424Y-65640623D01*
X141166853Y-65569574D01*
X141222000Y-65292335D01*
X141222000Y-65009665D01*
X147068000Y-65009665D01*
X147068000Y-65292335D01*
X147123147Y-65569574D01*
X147231320Y-65830727D01*
X147388363Y-66065759D01*
X147588241Y-66265637D01*
X147823273Y-66422680D01*
X148084426Y-66530853D01*
X148361665Y-66586000D01*
X148644335Y-66586000D01*
X148921574Y-66530853D01*
X149182727Y-66422680D01*
X149417759Y-66265637D01*
X149584339Y-66099057D01*
X149613498Y-66195180D01*
X149672463Y-66305494D01*
X149751815Y-66402185D01*
X149848506Y-66481537D01*
X149958820Y-66540502D01*
X150078518Y-66576812D01*
X150203000Y-66589072D01*
X151803000Y-66589072D01*
X151927482Y-66576812D01*
X152047180Y-66540502D01*
X152157494Y-66481537D01*
X152254185Y-66402185D01*
X152333537Y-66305494D01*
X152381239Y-66216250D01*
X157221434Y-66216250D01*
X157224265Y-66250541D01*
X157315048Y-66473199D01*
X157447526Y-66673868D01*
X157616607Y-66844836D01*
X157815793Y-66979533D01*
X158037430Y-67072782D01*
X158273000Y-67121000D01*
X158623000Y-67121000D01*
X158623000Y-66028000D01*
X158877000Y-66028000D01*
X158877000Y-67121000D01*
X159227000Y-67121000D01*
X159462570Y-67072782D01*
X159684207Y-66979533D01*
X159883393Y-66844836D01*
X160052474Y-66673868D01*
X160184952Y-66473199D01*
X160275735Y-66250541D01*
X160278566Y-66216250D01*
X160153624Y-66028000D01*
X158877000Y-66028000D01*
X158623000Y-66028000D01*
X157346376Y-66028000D01*
X157221434Y-66216250D01*
X152381239Y-66216250D01*
X152392502Y-66195180D01*
X152428812Y-66075482D01*
X152441072Y-65951000D01*
X152441072Y-64351000D01*
X152428812Y-64226518D01*
X152392502Y-64106820D01*
X152370683Y-64065999D01*
X157176928Y-64065999D01*
X157176928Y-64736001D01*
X157193992Y-64909255D01*
X157244528Y-65075851D01*
X157326595Y-65229387D01*
X157356568Y-65265909D01*
X157315048Y-65328801D01*
X157224265Y-65551459D01*
X157221434Y-65585750D01*
X157346376Y-65774000D01*
X158623000Y-65774000D01*
X158623000Y-65754000D01*
X158877000Y-65754000D01*
X158877000Y-65774000D01*
X160153624Y-65774000D01*
X160278566Y-65585750D01*
X160275735Y-65551459D01*
X160184952Y-65328801D01*
X160143432Y-65265909D01*
X160173405Y-65229387D01*
X160255472Y-65075851D01*
X160306008Y-64909255D01*
X160323072Y-64736001D01*
X160323072Y-64065999D01*
X160306008Y-63892745D01*
X160255472Y-63726149D01*
X160173405Y-63572613D01*
X160062962Y-63438038D01*
X159928387Y-63327595D01*
X159774851Y-63245528D01*
X159608255Y-63194992D01*
X159435001Y-63177928D01*
X158064999Y-63177928D01*
X157891745Y-63194992D01*
X157725149Y-63245528D01*
X157571613Y-63327595D01*
X157437038Y-63438038D01*
X157326595Y-63572613D01*
X157244528Y-63726149D01*
X157193992Y-63892745D01*
X157176928Y-64065999D01*
X152370683Y-64065999D01*
X152333537Y-63996506D01*
X152254185Y-63899815D01*
X152157494Y-63820463D01*
X152047180Y-63761498D01*
X151927482Y-63725188D01*
X151803000Y-63712928D01*
X150203000Y-63712928D01*
X150078518Y-63725188D01*
X149958820Y-63761498D01*
X149848506Y-63820463D01*
X149751815Y-63899815D01*
X149672463Y-63996506D01*
X149613498Y-64106820D01*
X149584339Y-64202943D01*
X149417759Y-64036363D01*
X149182727Y-63879320D01*
X148921574Y-63771147D01*
X148644335Y-63716000D01*
X148361665Y-63716000D01*
X148084426Y-63771147D01*
X147823273Y-63879320D01*
X147588241Y-64036363D01*
X147388363Y-64236241D01*
X147231320Y-64471273D01*
X147123147Y-64732426D01*
X147068000Y-65009665D01*
X141222000Y-65009665D01*
X141166853Y-64732426D01*
X141058680Y-64471273D01*
X140901637Y-64236241D01*
X140701759Y-64036363D01*
X140466727Y-63879320D01*
X140205574Y-63771147D01*
X139928335Y-63716000D01*
X139645665Y-63716000D01*
X139368426Y-63771147D01*
X139107273Y-63879320D01*
X138872241Y-64036363D01*
X138705661Y-64202943D01*
X138676502Y-64106820D01*
X138617537Y-63996506D01*
X138538185Y-63899815D01*
X138441494Y-63820463D01*
X138331180Y-63761498D01*
X138211482Y-63725188D01*
X138087000Y-63712928D01*
X136487000Y-63712928D01*
X136362518Y-63725188D01*
X136242820Y-63761498D01*
X136132506Y-63820463D01*
X136035815Y-63899815D01*
X135956463Y-63996506D01*
X135897498Y-64106820D01*
X135861188Y-64226518D01*
X135848928Y-64351000D01*
X132740000Y-64351000D01*
X132740000Y-55912279D01*
X132778909Y-55515455D01*
X132884780Y-55164792D01*
X133056744Y-54841375D01*
X133288254Y-54557516D01*
X133570486Y-54324035D01*
X133892695Y-54149817D01*
X134242614Y-54041498D01*
X134637443Y-54000000D01*
X159987721Y-54000000D01*
X160384545Y-54038909D01*
G37*
%TD.AperFunction*%
%TD*%
M02*
